%TF.GenerationSoftware,KiCad,Pcbnew,(5.1.10-1-10_14)*%
%TF.CreationDate,2021-10-23T10:24:52+09:00*%
%TF.ProjectId,PicoRubyMacroPad,5069636f-5275-4627-994d-6163726f5061,rev?*%
%TF.SameCoordinates,Original*%
%TF.FileFunction,Soldermask,Top*%
%TF.FilePolarity,Negative*%
%FSLAX46Y46*%
G04 Gerber Fmt 4.6, Leading zero omitted, Abs format (unit mm)*
G04 Created by KiCad (PCBNEW (5.1.10-1-10_14)) date 2021-10-23 10:24:52*
%MOMM*%
%LPD*%
G01*
G04 APERTURE LIST*
%ADD10C,2.200000*%
%ADD11C,3.987800*%
%ADD12C,1.750000*%
%ADD13C,3.048000*%
%ADD14O,1.300000X1.778000*%
%ADD15R,1.300000X1.778000*%
%ADD16O,1.700000X1.700000*%
%ADD17R,3.500000X1.700000*%
%ADD18R,1.700000X1.700000*%
%ADD19O,1.500000X1.500000*%
%ADD20O,1.800000X1.800000*%
%ADD21R,1.700000X3.500000*%
G04 APERTURE END LIST*
D10*
%TO.C,H4*%
X156600000Y-131200000D03*
%TD*%
%TO.C,H3*%
X91200000Y-131200000D03*
%TD*%
%TO.C,H2*%
X170200000Y-47200000D03*
%TD*%
%TO.C,H1*%
X77800000Y-47200000D03*
%TD*%
D11*
%TO.C,SW11*%
X123900000Y-123100000D03*
D12*
X118820000Y-123100000D03*
X128980000Y-123100000D03*
D13*
X111993750Y-130085000D03*
X135806250Y-130085000D03*
D11*
X111993750Y-114845000D03*
X135806250Y-114845000D03*
%TD*%
%TO.C,SW10*%
X162000000Y-104050000D03*
D12*
X156920000Y-104050000D03*
X167080000Y-104050000D03*
%TD*%
D11*
%TO.C,SW9*%
X142950000Y-104050000D03*
D12*
X137870000Y-104050000D03*
X148030000Y-104050000D03*
%TD*%
D11*
%TO.C,SW8*%
X123900000Y-104050000D03*
D12*
X118820000Y-104050000D03*
X128980000Y-104050000D03*
%TD*%
D11*
%TO.C,SW7*%
X104850000Y-104050000D03*
D12*
X99770000Y-104050000D03*
X109930000Y-104050000D03*
%TD*%
D11*
%TO.C,SW6*%
X85800000Y-104050000D03*
D12*
X80720000Y-104050000D03*
X90880000Y-104050000D03*
%TD*%
D14*
%TO.C,D10*%
X152600000Y-102200000D03*
D15*
X152600000Y-108200000D03*
%TD*%
D14*
%TO.C,D9*%
X133400000Y-102200000D03*
D15*
X133400000Y-108200000D03*
%TD*%
D14*
%TO.C,D8*%
X114400000Y-102225000D03*
D15*
X114400000Y-108225000D03*
%TD*%
D14*
%TO.C,D7*%
X95400000Y-102200000D03*
D15*
X95400000Y-108200000D03*
%TD*%
D14*
%TO.C,D6*%
X77200000Y-102275000D03*
D15*
X77200000Y-108275000D03*
%TD*%
D14*
%TO.C,D5*%
X152500000Y-83000000D03*
D15*
X152500000Y-89000000D03*
%TD*%
D14*
%TO.C,D4*%
X133400000Y-83000000D03*
D15*
X133400000Y-89000000D03*
%TD*%
D14*
%TO.C,D3*%
X114400000Y-83000000D03*
D15*
X114400000Y-89000000D03*
%TD*%
D14*
%TO.C,D2*%
X95400000Y-83000000D03*
D15*
X95400000Y-89000000D03*
%TD*%
D14*
%TO.C,D1*%
X77200000Y-83075000D03*
D15*
X77200000Y-89075000D03*
%TD*%
D11*
%TO.C,SW5*%
X162000000Y-85000000D03*
D12*
X156920000Y-85000000D03*
X167080000Y-85000000D03*
%TD*%
D11*
%TO.C,SW4*%
X142950000Y-85000000D03*
D12*
X137870000Y-85000000D03*
X148030000Y-85000000D03*
%TD*%
D11*
%TO.C,SW3*%
X123900000Y-85000000D03*
D12*
X118820000Y-85000000D03*
X128980000Y-85000000D03*
%TD*%
D11*
%TO.C,SW2*%
X104850000Y-85000000D03*
D12*
X99770000Y-85000000D03*
X109930000Y-85000000D03*
%TD*%
D11*
%TO.C,SW1*%
X85800000Y-85000000D03*
D12*
X80720000Y-85000000D03*
X90880000Y-85000000D03*
%TD*%
D16*
%TO.C,U1*%
X124300000Y-59850000D03*
D17*
X125200000Y-59850000D03*
D18*
X124300000Y-62390000D03*
D17*
X125200000Y-62390000D03*
D16*
X124300000Y-64930000D03*
D17*
X125200000Y-64930000D03*
D19*
X79430000Y-59965000D03*
X79430000Y-64815000D03*
D20*
X76400000Y-59665000D03*
X76400000Y-65115000D03*
D21*
X124530000Y-52600000D03*
X121990000Y-52600000D03*
X119450000Y-52600000D03*
X116910000Y-52600000D03*
X114370000Y-52600000D03*
X111830000Y-52600000D03*
X109290000Y-52600000D03*
X106750000Y-52600000D03*
X104210000Y-52600000D03*
X101670000Y-52600000D03*
X99130000Y-52600000D03*
X96590000Y-52600000D03*
X94050000Y-52600000D03*
X91510000Y-52600000D03*
X88970000Y-52600000D03*
X86430000Y-52600000D03*
X83890000Y-52600000D03*
X81350000Y-52600000D03*
X78810000Y-52600000D03*
X76270000Y-52600000D03*
X124530000Y-72180000D03*
X121990000Y-72180000D03*
X119450000Y-72180000D03*
X116910000Y-72180000D03*
X114370000Y-72180000D03*
X111830000Y-72180000D03*
X109290000Y-72180000D03*
X106750000Y-72180000D03*
X104210000Y-72180000D03*
X101670000Y-72180000D03*
X99130000Y-72180000D03*
X96590000Y-72180000D03*
X94050000Y-72180000D03*
X91510000Y-72180000D03*
X88970000Y-72180000D03*
X86430000Y-72180000D03*
X83890000Y-72180000D03*
X81350000Y-72180000D03*
X78810000Y-72180000D03*
X76270000Y-72180000D03*
D16*
X76270000Y-53500000D03*
X78810000Y-53500000D03*
D18*
X81350000Y-53500000D03*
D16*
X83890000Y-53500000D03*
X86430000Y-53500000D03*
X88970000Y-53500000D03*
X91510000Y-53500000D03*
D18*
X94050000Y-53500000D03*
D16*
X96590000Y-53500000D03*
X99130000Y-53500000D03*
X101670000Y-53500000D03*
X104210000Y-53500000D03*
D18*
X106750000Y-53500000D03*
D16*
X109290000Y-53500000D03*
X111830000Y-53500000D03*
X114370000Y-53500000D03*
X116910000Y-53500000D03*
D18*
X119450000Y-53500000D03*
D16*
X121990000Y-53500000D03*
X124530000Y-53500000D03*
X124530000Y-71280000D03*
X121990000Y-71280000D03*
D18*
X119450000Y-71280000D03*
D16*
X116910000Y-71280000D03*
X114370000Y-71280000D03*
X111830000Y-71280000D03*
X109290000Y-71280000D03*
D18*
X106750000Y-71280000D03*
D16*
X104210000Y-71280000D03*
X101670000Y-71280000D03*
X99130000Y-71280000D03*
X96590000Y-71280000D03*
D18*
X94050000Y-71280000D03*
D16*
X91510000Y-71280000D03*
X88970000Y-71280000D03*
X86430000Y-71280000D03*
X83890000Y-71280000D03*
D18*
X81350000Y-71280000D03*
D16*
X78810000Y-71280000D03*
X76270000Y-71280000D03*
%TD*%
M02*
