%TF.GenerationSoftware,KiCad,Pcbnew,(5.1.12-1-10_14)*%
%TF.CreationDate,2021-12-05T15:19:09+09:00*%
%TF.ProjectId,PicoRubyMacroPad,5069636f-5275-4627-994d-6163726f5061,rev?*%
%TF.SameCoordinates,Original*%
%TF.FileFunction,Legend,Bot*%
%TF.FilePolarity,Positive*%
%FSLAX46Y46*%
G04 Gerber Fmt 4.6, Leading zero omitted, Abs format (unit mm)*
G04 Created by KiCad (PCBNEW (5.1.12-1-10_14)) date 2021-12-05 15:19:09*
%MOMM*%
%LPD*%
G01*
G04 APERTURE LIST*
%ADD10C,0.300000*%
%ADD11C,0.150000*%
%ADD12C,0.120000*%
G04 APERTURE END LIST*
D10*
X160207142Y-46878571D02*
X160207142Y-45378571D01*
X159635714Y-45378571D01*
X159492857Y-45450000D01*
X159421428Y-45521428D01*
X159350000Y-45664285D01*
X159350000Y-45878571D01*
X159421428Y-46021428D01*
X159492857Y-46092857D01*
X159635714Y-46164285D01*
X160207142Y-46164285D01*
X158492857Y-46878571D02*
X158635714Y-46807142D01*
X158707142Y-46735714D01*
X158778571Y-46592857D01*
X158778571Y-46164285D01*
X158707142Y-46021428D01*
X158635714Y-45950000D01*
X158492857Y-45878571D01*
X158278571Y-45878571D01*
X158135714Y-45950000D01*
X158064285Y-46021428D01*
X157992857Y-46164285D01*
X157992857Y-46592857D01*
X158064285Y-46735714D01*
X158135714Y-46807142D01*
X158278571Y-46878571D01*
X158492857Y-46878571D01*
X157492857Y-45878571D02*
X157207142Y-46878571D01*
X156921428Y-46164285D01*
X156635714Y-46878571D01*
X156350000Y-45878571D01*
X155207142Y-46807142D02*
X155350000Y-46878571D01*
X155635714Y-46878571D01*
X155778571Y-46807142D01*
X155850000Y-46664285D01*
X155850000Y-46092857D01*
X155778571Y-45950000D01*
X155635714Y-45878571D01*
X155350000Y-45878571D01*
X155207142Y-45950000D01*
X155135714Y-46092857D01*
X155135714Y-46235714D01*
X155850000Y-46378571D01*
X154492857Y-46878571D02*
X154492857Y-45878571D01*
X154492857Y-46164285D02*
X154421428Y-46021428D01*
X154350000Y-45950000D01*
X154207142Y-45878571D01*
X154064285Y-45878571D01*
X152992857Y-46807142D02*
X153135714Y-46878571D01*
X153421428Y-46878571D01*
X153564285Y-46807142D01*
X153635714Y-46664285D01*
X153635714Y-46092857D01*
X153564285Y-45950000D01*
X153421428Y-45878571D01*
X153135714Y-45878571D01*
X152992857Y-45950000D01*
X152921428Y-46092857D01*
X152921428Y-46235714D01*
X153635714Y-46378571D01*
X151635714Y-46878571D02*
X151635714Y-45378571D01*
X151635714Y-46807142D02*
X151778571Y-46878571D01*
X152064285Y-46878571D01*
X152207142Y-46807142D01*
X152278571Y-46735714D01*
X152350000Y-46592857D01*
X152350000Y-46164285D01*
X152278571Y-46021428D01*
X152207142Y-45950000D01*
X152064285Y-45878571D01*
X151778571Y-45878571D01*
X151635714Y-45950000D01*
X149778571Y-46878571D02*
X149778571Y-45378571D01*
X149778571Y-45950000D02*
X149635714Y-45878571D01*
X149350000Y-45878571D01*
X149207142Y-45950000D01*
X149135714Y-46021428D01*
X149064285Y-46164285D01*
X149064285Y-46592857D01*
X149135714Y-46735714D01*
X149207142Y-46807142D01*
X149350000Y-46878571D01*
X149635714Y-46878571D01*
X149778571Y-46807142D01*
X148564285Y-45878571D02*
X148207142Y-46878571D01*
X147850000Y-45878571D02*
X148207142Y-46878571D01*
X148350000Y-47235714D01*
X148421428Y-47307142D01*
X148564285Y-47378571D01*
D11*
X170364404Y-115402380D02*
X170364404Y-114402380D01*
X169983452Y-114402380D01*
X169888214Y-114450000D01*
X169840595Y-114497619D01*
X169792976Y-114592857D01*
X169792976Y-114735714D01*
X169840595Y-114830952D01*
X169888214Y-114878571D01*
X169983452Y-114926190D01*
X170364404Y-114926190D01*
X169364404Y-115402380D02*
X169364404Y-114735714D01*
X169364404Y-114402380D02*
X169412023Y-114450000D01*
X169364404Y-114497619D01*
X169316785Y-114450000D01*
X169364404Y-114402380D01*
X169364404Y-114497619D01*
X168459642Y-115354761D02*
X168554880Y-115402380D01*
X168745357Y-115402380D01*
X168840595Y-115354761D01*
X168888214Y-115307142D01*
X168935833Y-115211904D01*
X168935833Y-114926190D01*
X168888214Y-114830952D01*
X168840595Y-114783333D01*
X168745357Y-114735714D01*
X168554880Y-114735714D01*
X168459642Y-114783333D01*
X167888214Y-115402380D02*
X167983452Y-115354761D01*
X168031071Y-115307142D01*
X168078690Y-115211904D01*
X168078690Y-114926190D01*
X168031071Y-114830952D01*
X167983452Y-114783333D01*
X167888214Y-114735714D01*
X167745357Y-114735714D01*
X167650119Y-114783333D01*
X167602500Y-114830952D01*
X167554880Y-114926190D01*
X167554880Y-115211904D01*
X167602500Y-115307142D01*
X167650119Y-115354761D01*
X167745357Y-115402380D01*
X167888214Y-115402380D01*
X166554880Y-115402380D02*
X166888214Y-114926190D01*
X167126309Y-115402380D02*
X167126309Y-114402380D01*
X166745357Y-114402380D01*
X166650119Y-114450000D01*
X166602500Y-114497619D01*
X166554880Y-114592857D01*
X166554880Y-114735714D01*
X166602500Y-114830952D01*
X166650119Y-114878571D01*
X166745357Y-114926190D01*
X167126309Y-114926190D01*
X165697738Y-114735714D02*
X165697738Y-115402380D01*
X166126309Y-114735714D02*
X166126309Y-115259523D01*
X166078690Y-115354761D01*
X165983452Y-115402380D01*
X165840595Y-115402380D01*
X165745357Y-115354761D01*
X165697738Y-115307142D01*
X165221547Y-115402380D02*
X165221547Y-114402380D01*
X165221547Y-114783333D02*
X165126309Y-114735714D01*
X164935833Y-114735714D01*
X164840595Y-114783333D01*
X164792976Y-114830952D01*
X164745357Y-114926190D01*
X164745357Y-115211904D01*
X164792976Y-115307142D01*
X164840595Y-115354761D01*
X164935833Y-115402380D01*
X165126309Y-115402380D01*
X165221547Y-115354761D01*
X164412023Y-114735714D02*
X164173928Y-115402380D01*
X163935833Y-114735714D02*
X164173928Y-115402380D01*
X164269166Y-115640476D01*
X164316785Y-115688095D01*
X164412023Y-115735714D01*
X161983452Y-115402380D02*
X162031071Y-115402380D01*
X162126309Y-115354761D01*
X162269166Y-115211904D01*
X162507261Y-114926190D01*
X162602500Y-114783333D01*
X162650119Y-114640476D01*
X162650119Y-114545238D01*
X162602500Y-114450000D01*
X162507261Y-114402380D01*
X162459642Y-114402380D01*
X162364404Y-114450000D01*
X162316785Y-114545238D01*
X162316785Y-114592857D01*
X162364404Y-114688095D01*
X162412023Y-114735714D01*
X162697738Y-114926190D01*
X162745357Y-114973809D01*
X162792976Y-115069047D01*
X162792976Y-115211904D01*
X162745357Y-115307142D01*
X162697738Y-115354761D01*
X162602500Y-115402380D01*
X162459642Y-115402380D01*
X162364404Y-115354761D01*
X162316785Y-115307142D01*
X162173928Y-115116666D01*
X162126309Y-114973809D01*
X162126309Y-114878571D01*
X160792976Y-115402380D02*
X160792976Y-114402380D01*
X160412023Y-114402380D01*
X160316785Y-114450000D01*
X160269166Y-114497619D01*
X160221547Y-114592857D01*
X160221547Y-114735714D01*
X160269166Y-114830952D01*
X160316785Y-114878571D01*
X160412023Y-114926190D01*
X160792976Y-114926190D01*
X159221547Y-115402380D02*
X159554880Y-114926190D01*
X159792976Y-115402380D02*
X159792976Y-114402380D01*
X159412023Y-114402380D01*
X159316785Y-114450000D01*
X159269166Y-114497619D01*
X159221547Y-114592857D01*
X159221547Y-114735714D01*
X159269166Y-114830952D01*
X159316785Y-114878571D01*
X159412023Y-114926190D01*
X159792976Y-114926190D01*
X158792976Y-115402380D02*
X158792976Y-114402380D01*
X158221547Y-115402380D02*
X158650119Y-114830952D01*
X158221547Y-114402380D02*
X158792976Y-114973809D01*
X156697738Y-114878571D02*
X157031071Y-114878571D01*
X157031071Y-115402380D02*
X157031071Y-114402380D01*
X156554880Y-114402380D01*
X156173928Y-115402380D02*
X156173928Y-114735714D01*
X156173928Y-114402380D02*
X156221547Y-114450000D01*
X156173928Y-114497619D01*
X156126309Y-114450000D01*
X156173928Y-114402380D01*
X156173928Y-114497619D01*
X155697738Y-115402380D02*
X155697738Y-114735714D01*
X155697738Y-114926190D02*
X155650119Y-114830952D01*
X155602500Y-114783333D01*
X155507261Y-114735714D01*
X155412023Y-114735714D01*
X155078690Y-115402380D02*
X155078690Y-114735714D01*
X155078690Y-114830952D02*
X155031071Y-114783333D01*
X154935833Y-114735714D01*
X154792976Y-114735714D01*
X154697738Y-114783333D01*
X154650119Y-114878571D01*
X154650119Y-115402380D01*
X154650119Y-114878571D02*
X154602500Y-114783333D01*
X154507261Y-114735714D01*
X154364404Y-114735714D01*
X154269166Y-114783333D01*
X154221547Y-114878571D01*
X154221547Y-115402380D01*
X153840595Y-114735714D02*
X153650119Y-115402380D01*
X153459642Y-114926190D01*
X153269166Y-115402380D01*
X153078690Y-114735714D01*
X152269166Y-115402380D02*
X152269166Y-114878571D01*
X152316785Y-114783333D01*
X152412023Y-114735714D01*
X152602500Y-114735714D01*
X152697738Y-114783333D01*
X152269166Y-115354761D02*
X152364404Y-115402380D01*
X152602500Y-115402380D01*
X152697738Y-115354761D01*
X152745357Y-115259523D01*
X152745357Y-115164285D01*
X152697738Y-115069047D01*
X152602500Y-115021428D01*
X152364404Y-115021428D01*
X152269166Y-114973809D01*
X151792976Y-115402380D02*
X151792976Y-114735714D01*
X151792976Y-114926190D02*
X151745357Y-114830952D01*
X151697738Y-114783333D01*
X151602500Y-114735714D01*
X151507261Y-114735714D01*
X150792976Y-115354761D02*
X150888214Y-115402380D01*
X151078690Y-115402380D01*
X151173928Y-115354761D01*
X151221547Y-115259523D01*
X151221547Y-114878571D01*
X151173928Y-114783333D01*
X151078690Y-114735714D01*
X150888214Y-114735714D01*
X150792976Y-114783333D01*
X150745357Y-114878571D01*
X150745357Y-114973809D01*
X151221547Y-115069047D01*
X149554880Y-115402380D02*
X149554880Y-114402380D01*
X149554880Y-114783333D02*
X149459642Y-114735714D01*
X149269166Y-114735714D01*
X149173928Y-114783333D01*
X149126309Y-114830952D01*
X149078690Y-114926190D01*
X149078690Y-115211904D01*
X149126309Y-115307142D01*
X149173928Y-115354761D01*
X149269166Y-115402380D01*
X149459642Y-115402380D01*
X149554880Y-115354761D01*
X148745357Y-114735714D02*
X148507261Y-115402380D01*
X148269166Y-114735714D02*
X148507261Y-115402380D01*
X148602500Y-115640476D01*
X148650119Y-115688095D01*
X148745357Y-115735714D01*
X147126309Y-115402380D02*
X147126309Y-114402380D01*
X146697738Y-115402380D02*
X146697738Y-114878571D01*
X146745357Y-114783333D01*
X146840595Y-114735714D01*
X146983452Y-114735714D01*
X147078690Y-114783333D01*
X147126309Y-114830952D01*
X145792976Y-115402380D02*
X145792976Y-114878571D01*
X145840595Y-114783333D01*
X145935833Y-114735714D01*
X146126309Y-114735714D01*
X146221547Y-114783333D01*
X145792976Y-115354761D02*
X145888214Y-115402380D01*
X146126309Y-115402380D01*
X146221547Y-115354761D01*
X146269166Y-115259523D01*
X146269166Y-115164285D01*
X146221547Y-115069047D01*
X146126309Y-115021428D01*
X145888214Y-115021428D01*
X145792976Y-114973809D01*
X145364404Y-115354761D02*
X145269166Y-115402380D01*
X145078690Y-115402380D01*
X144983452Y-115354761D01*
X144935833Y-115259523D01*
X144935833Y-115211904D01*
X144983452Y-115116666D01*
X145078690Y-115069047D01*
X145221547Y-115069047D01*
X145316785Y-115021428D01*
X145364404Y-114926190D01*
X145364404Y-114878571D01*
X145316785Y-114783333D01*
X145221547Y-114735714D01*
X145078690Y-114735714D01*
X144983452Y-114783333D01*
X144078690Y-114735714D02*
X144078690Y-115402380D01*
X144507261Y-114735714D02*
X144507261Y-115259523D01*
X144459642Y-115354761D01*
X144364404Y-115402380D01*
X144221547Y-115402380D01*
X144126309Y-115354761D01*
X144078690Y-115307142D01*
X143602500Y-115402380D02*
X143602500Y-114735714D01*
X143602500Y-114830952D02*
X143554880Y-114783333D01*
X143459642Y-114735714D01*
X143316785Y-114735714D01*
X143221547Y-114783333D01*
X143173928Y-114878571D01*
X143173928Y-115402380D01*
X143173928Y-114878571D02*
X143126309Y-114783333D01*
X143031071Y-114735714D01*
X142888214Y-114735714D01*
X142792976Y-114783333D01*
X142745357Y-114878571D01*
X142745357Y-115402380D01*
X142269166Y-115402380D02*
X142269166Y-114735714D01*
X142269166Y-114402380D02*
X142316785Y-114450000D01*
X142269166Y-114497619D01*
X142221547Y-114450000D01*
X142269166Y-114402380D01*
X142269166Y-114497619D01*
X141792976Y-115402380D02*
X141792976Y-114402380D01*
X141697738Y-115021428D02*
X141412023Y-115402380D01*
X141412023Y-114735714D02*
X141792976Y-115116666D01*
X140983452Y-115402380D02*
X140983452Y-114735714D01*
X140983452Y-114402380D02*
X141031071Y-114450000D01*
X140983452Y-114497619D01*
X140935833Y-114450000D01*
X140983452Y-114402380D01*
X140983452Y-114497619D01*
X140507261Y-114735714D02*
X140507261Y-115402380D01*
X140507261Y-114830952D02*
X140459642Y-114783333D01*
X140364404Y-114735714D01*
X140221547Y-114735714D01*
X140126309Y-114783333D01*
X140078690Y-114878571D01*
X140078690Y-115402380D01*
X170364404Y-117052380D02*
X170364404Y-116052380D01*
X169983452Y-116052380D01*
X169888214Y-116100000D01*
X169840595Y-116147619D01*
X169792976Y-116242857D01*
X169792976Y-116385714D01*
X169840595Y-116480952D01*
X169888214Y-116528571D01*
X169983452Y-116576190D01*
X170364404Y-116576190D01*
X168792976Y-116957142D02*
X168840595Y-117004761D01*
X168983452Y-117052380D01*
X169078690Y-117052380D01*
X169221547Y-117004761D01*
X169316785Y-116909523D01*
X169364404Y-116814285D01*
X169412023Y-116623809D01*
X169412023Y-116480952D01*
X169364404Y-116290476D01*
X169316785Y-116195238D01*
X169221547Y-116100000D01*
X169078690Y-116052380D01*
X168983452Y-116052380D01*
X168840595Y-116100000D01*
X168792976Y-116147619D01*
X168031071Y-116528571D02*
X167888214Y-116576190D01*
X167840595Y-116623809D01*
X167792976Y-116719047D01*
X167792976Y-116861904D01*
X167840595Y-116957142D01*
X167888214Y-117004761D01*
X167983452Y-117052380D01*
X168364404Y-117052380D01*
X168364404Y-116052380D01*
X168031071Y-116052380D01*
X167935833Y-116100000D01*
X167888214Y-116147619D01*
X167840595Y-116242857D01*
X167840595Y-116338095D01*
X167888214Y-116433333D01*
X167935833Y-116480952D01*
X168031071Y-116528571D01*
X168364404Y-116528571D01*
X166173928Y-117052380D02*
X166173928Y-116052380D01*
X166173928Y-117004761D02*
X166269166Y-117052380D01*
X166459642Y-117052380D01*
X166554880Y-117004761D01*
X166602500Y-116957142D01*
X166650119Y-116861904D01*
X166650119Y-116576190D01*
X166602500Y-116480952D01*
X166554880Y-116433333D01*
X166459642Y-116385714D01*
X166269166Y-116385714D01*
X166173928Y-116433333D01*
X165316785Y-117004761D02*
X165412023Y-117052380D01*
X165602500Y-117052380D01*
X165697738Y-117004761D01*
X165745357Y-116909523D01*
X165745357Y-116528571D01*
X165697738Y-116433333D01*
X165602500Y-116385714D01*
X165412023Y-116385714D01*
X165316785Y-116433333D01*
X165269166Y-116528571D01*
X165269166Y-116623809D01*
X165745357Y-116719047D01*
X164888214Y-117004761D02*
X164792976Y-117052380D01*
X164602500Y-117052380D01*
X164507261Y-117004761D01*
X164459642Y-116909523D01*
X164459642Y-116861904D01*
X164507261Y-116766666D01*
X164602500Y-116719047D01*
X164745357Y-116719047D01*
X164840595Y-116671428D01*
X164888214Y-116576190D01*
X164888214Y-116528571D01*
X164840595Y-116433333D01*
X164745357Y-116385714D01*
X164602500Y-116385714D01*
X164507261Y-116433333D01*
X164031071Y-117052380D02*
X164031071Y-116385714D01*
X164031071Y-116052380D02*
X164078690Y-116100000D01*
X164031071Y-116147619D01*
X163983452Y-116100000D01*
X164031071Y-116052380D01*
X164031071Y-116147619D01*
X163126309Y-116385714D02*
X163126309Y-117195238D01*
X163173928Y-117290476D01*
X163221547Y-117338095D01*
X163316785Y-117385714D01*
X163459642Y-117385714D01*
X163554880Y-117338095D01*
X163126309Y-117004761D02*
X163221547Y-117052380D01*
X163412023Y-117052380D01*
X163507261Y-117004761D01*
X163554880Y-116957142D01*
X163602500Y-116861904D01*
X163602500Y-116576190D01*
X163554880Y-116480952D01*
X163507261Y-116433333D01*
X163412023Y-116385714D01*
X163221547Y-116385714D01*
X163126309Y-116433333D01*
X162650119Y-116385714D02*
X162650119Y-117052380D01*
X162650119Y-116480952D02*
X162602500Y-116433333D01*
X162507261Y-116385714D01*
X162364404Y-116385714D01*
X162269166Y-116433333D01*
X162221547Y-116528571D01*
X162221547Y-117052380D01*
X160983452Y-117052380D02*
X160983452Y-116052380D01*
X160983452Y-116433333D02*
X160888214Y-116385714D01*
X160697738Y-116385714D01*
X160602500Y-116433333D01*
X160554880Y-116480952D01*
X160507261Y-116576190D01*
X160507261Y-116861904D01*
X160554880Y-116957142D01*
X160602500Y-117004761D01*
X160697738Y-117052380D01*
X160888214Y-117052380D01*
X160983452Y-117004761D01*
X160173928Y-116385714D02*
X159935833Y-117052380D01*
X159697738Y-116385714D02*
X159935833Y-117052380D01*
X160031071Y-117290476D01*
X160078690Y-117338095D01*
X160173928Y-117385714D01*
X158173928Y-117004761D02*
X158269166Y-117052380D01*
X158459642Y-117052380D01*
X158554880Y-117004761D01*
X158602500Y-116909523D01*
X158602500Y-116528571D01*
X158554880Y-116433333D01*
X158459642Y-116385714D01*
X158269166Y-116385714D01*
X158173928Y-116433333D01*
X158126309Y-116528571D01*
X158126309Y-116623809D01*
X158602500Y-116719047D01*
X157745357Y-117004761D02*
X157650119Y-117052380D01*
X157459642Y-117052380D01*
X157364404Y-117004761D01*
X157316785Y-116909523D01*
X157316785Y-116861904D01*
X157364404Y-116766666D01*
X157459642Y-116719047D01*
X157602500Y-116719047D01*
X157697738Y-116671428D01*
X157745357Y-116576190D01*
X157745357Y-116528571D01*
X157697738Y-116433333D01*
X157602500Y-116385714D01*
X157459642Y-116385714D01*
X157364404Y-116433333D01*
X156983452Y-116385714D02*
X156792976Y-117052380D01*
X156602500Y-116576190D01*
X156412023Y-117052380D01*
X156221547Y-116385714D01*
X155412023Y-117052380D02*
X155412023Y-116528571D01*
X155459642Y-116433333D01*
X155554880Y-116385714D01*
X155745357Y-116385714D01*
X155840595Y-116433333D01*
X155412023Y-117004761D02*
X155507261Y-117052380D01*
X155745357Y-117052380D01*
X155840595Y-117004761D01*
X155888214Y-116909523D01*
X155888214Y-116814285D01*
X155840595Y-116719047D01*
X155745357Y-116671428D01*
X155507261Y-116671428D01*
X155412023Y-116623809D01*
X154935833Y-117052380D02*
X154935833Y-116385714D01*
X154935833Y-116052380D02*
X154983452Y-116100000D01*
X154935833Y-116147619D01*
X154888214Y-116100000D01*
X154935833Y-116052380D01*
X154935833Y-116147619D01*
X169792976Y-118702380D02*
X170126309Y-118226190D01*
X170364404Y-118702380D02*
X170364404Y-117702380D01*
X169983452Y-117702380D01*
X169888214Y-117750000D01*
X169840595Y-117797619D01*
X169792976Y-117892857D01*
X169792976Y-118035714D01*
X169840595Y-118130952D01*
X169888214Y-118178571D01*
X169983452Y-118226190D01*
X170364404Y-118226190D01*
X168983452Y-118654761D02*
X169078690Y-118702380D01*
X169269166Y-118702380D01*
X169364404Y-118654761D01*
X169412023Y-118559523D01*
X169412023Y-118178571D01*
X169364404Y-118083333D01*
X169269166Y-118035714D01*
X169078690Y-118035714D01*
X168983452Y-118083333D01*
X168935833Y-118178571D01*
X168935833Y-118273809D01*
X169412023Y-118369047D01*
X168602500Y-118035714D02*
X168364404Y-118702380D01*
X168126309Y-118035714D01*
X167745357Y-118607142D02*
X167697738Y-118654761D01*
X167745357Y-118702380D01*
X167792976Y-118654761D01*
X167745357Y-118607142D01*
X167745357Y-118702380D01*
X167364404Y-117702380D02*
X166745357Y-117702380D01*
X167078690Y-118083333D01*
X166935833Y-118083333D01*
X166840595Y-118130952D01*
X166792976Y-118178571D01*
X166745357Y-118273809D01*
X166745357Y-118511904D01*
X166792976Y-118607142D01*
X166840595Y-118654761D01*
X166935833Y-118702380D01*
X167221547Y-118702380D01*
X167316785Y-118654761D01*
X167364404Y-118607142D01*
X165602500Y-117797619D02*
X165554880Y-117750000D01*
X165459642Y-117702380D01*
X165221547Y-117702380D01*
X165126309Y-117750000D01*
X165078690Y-117797619D01*
X165031071Y-117892857D01*
X165031071Y-117988095D01*
X165078690Y-118130952D01*
X165650119Y-118702380D01*
X165031071Y-118702380D01*
X164412023Y-117702380D02*
X164316785Y-117702380D01*
X164221547Y-117750000D01*
X164173928Y-117797619D01*
X164126309Y-117892857D01*
X164078690Y-118083333D01*
X164078690Y-118321428D01*
X164126309Y-118511904D01*
X164173928Y-118607142D01*
X164221547Y-118654761D01*
X164316785Y-118702380D01*
X164412023Y-118702380D01*
X164507261Y-118654761D01*
X164554880Y-118607142D01*
X164602500Y-118511904D01*
X164650119Y-118321428D01*
X164650119Y-118083333D01*
X164602500Y-117892857D01*
X164554880Y-117797619D01*
X164507261Y-117750000D01*
X164412023Y-117702380D01*
X163697738Y-117797619D02*
X163650119Y-117750000D01*
X163554880Y-117702380D01*
X163316785Y-117702380D01*
X163221547Y-117750000D01*
X163173928Y-117797619D01*
X163126309Y-117892857D01*
X163126309Y-117988095D01*
X163173928Y-118130952D01*
X163745357Y-118702380D01*
X163126309Y-118702380D01*
X162173928Y-118702380D02*
X162745357Y-118702380D01*
X162459642Y-118702380D02*
X162459642Y-117702380D01*
X162554880Y-117845238D01*
X162650119Y-117940476D01*
X162745357Y-117988095D01*
X161745357Y-118607142D02*
X161697738Y-118654761D01*
X161745357Y-118702380D01*
X161792976Y-118654761D01*
X161745357Y-118607142D01*
X161745357Y-118702380D01*
X160745357Y-118702380D02*
X161316785Y-118702380D01*
X161031071Y-118702380D02*
X161031071Y-117702380D01*
X161126309Y-117845238D01*
X161221547Y-117940476D01*
X161316785Y-117988095D01*
X160364404Y-117797619D02*
X160316785Y-117750000D01*
X160221547Y-117702380D01*
X159983452Y-117702380D01*
X159888214Y-117750000D01*
X159840595Y-117797619D01*
X159792976Y-117892857D01*
X159792976Y-117988095D01*
X159840595Y-118130952D01*
X160412023Y-118702380D01*
X159792976Y-118702380D01*
X159364404Y-118607142D02*
X159316785Y-118654761D01*
X159364404Y-118702380D01*
X159412023Y-118654761D01*
X159364404Y-118607142D01*
X159364404Y-118702380D01*
X158697738Y-117702380D02*
X158602500Y-117702380D01*
X158507261Y-117750000D01*
X158459642Y-117797619D01*
X158412023Y-117892857D01*
X158364404Y-118083333D01*
X158364404Y-118321428D01*
X158412023Y-118511904D01*
X158459642Y-118607142D01*
X158507261Y-118654761D01*
X158602500Y-118702380D01*
X158697738Y-118702380D01*
X158792976Y-118654761D01*
X158840595Y-118607142D01*
X158888214Y-118511904D01*
X158935833Y-118321428D01*
X158935833Y-118083333D01*
X158888214Y-117892857D01*
X158840595Y-117797619D01*
X158792976Y-117750000D01*
X158697738Y-117702380D01*
X157459642Y-117702380D02*
X157935833Y-117702380D01*
X157983452Y-118178571D01*
X157935833Y-118130952D01*
X157840595Y-118083333D01*
X157602500Y-118083333D01*
X157507261Y-118130952D01*
X157459642Y-118178571D01*
X157412023Y-118273809D01*
X157412023Y-118511904D01*
X157459642Y-118607142D01*
X157507261Y-118654761D01*
X157602500Y-118702380D01*
X157840595Y-118702380D01*
X157935833Y-118654761D01*
X157983452Y-118607142D01*
%TO.C,D11*%
X106400000Y-122200000D02*
X105400000Y-122200000D01*
X105400000Y-121200000D02*
X105900000Y-122100000D01*
X106400000Y-121200000D02*
X105400000Y-121200000D01*
X105900000Y-122100000D02*
X106400000Y-121200000D01*
%TO.C,D10*%
X153100000Y-105700000D02*
X152100000Y-105700000D01*
X152100000Y-104700000D02*
X152600000Y-105600000D01*
X153100000Y-104700000D02*
X152100000Y-104700000D01*
X152600000Y-105600000D02*
X153100000Y-104700000D01*
%TO.C,D9*%
X133900000Y-105700000D02*
X132900000Y-105700000D01*
X132900000Y-104700000D02*
X133400000Y-105600000D01*
X133900000Y-104700000D02*
X132900000Y-104700000D01*
X133400000Y-105600000D02*
X133900000Y-104700000D01*
%TO.C,D8*%
X114900000Y-105725000D02*
X113900000Y-105725000D01*
X113900000Y-104725000D02*
X114400000Y-105625000D01*
X114900000Y-104725000D02*
X113900000Y-104725000D01*
X114400000Y-105625000D02*
X114900000Y-104725000D01*
%TO.C,D7*%
X95900000Y-105700000D02*
X94900000Y-105700000D01*
X94900000Y-104700000D02*
X95400000Y-105600000D01*
X95900000Y-104700000D02*
X94900000Y-104700000D01*
X95400000Y-105600000D02*
X95900000Y-104700000D01*
%TO.C,D6*%
X77700000Y-105775000D02*
X76700000Y-105775000D01*
X76700000Y-104775000D02*
X77200000Y-105675000D01*
X77700000Y-104775000D02*
X76700000Y-104775000D01*
X77200000Y-105675000D02*
X77700000Y-104775000D01*
%TO.C,D5*%
X153000000Y-86500000D02*
X152000000Y-86500000D01*
X152000000Y-85500000D02*
X152500000Y-86400000D01*
X153000000Y-85500000D02*
X152000000Y-85500000D01*
X152500000Y-86400000D02*
X153000000Y-85500000D01*
%TO.C,D4*%
X133900000Y-86500000D02*
X132900000Y-86500000D01*
X132900000Y-85500000D02*
X133400000Y-86400000D01*
X133900000Y-85500000D02*
X132900000Y-85500000D01*
X133400000Y-86400000D02*
X133900000Y-85500000D01*
%TO.C,D3*%
X114900000Y-86500000D02*
X113900000Y-86500000D01*
X113900000Y-85500000D02*
X114400000Y-86400000D01*
X114900000Y-85500000D02*
X113900000Y-85500000D01*
X114400000Y-86400000D02*
X114900000Y-85500000D01*
%TO.C,D2*%
X95900000Y-86500000D02*
X94900000Y-86500000D01*
X94900000Y-85500000D02*
X95400000Y-86400000D01*
X95900000Y-85500000D02*
X94900000Y-85500000D01*
X95400000Y-86400000D02*
X95900000Y-85500000D01*
%TO.C,D1*%
X77700000Y-86575000D02*
X76700000Y-86575000D01*
X76700000Y-85575000D02*
X77200000Y-86475000D01*
X77700000Y-85575000D02*
X76700000Y-85575000D01*
X77200000Y-86475000D02*
X77700000Y-85575000D01*
D12*
%TO.C,LED3*%
X156450000Y-64050000D02*
X158050000Y-64050000D01*
X154350000Y-71850000D02*
X154350000Y-64050000D01*
X158050000Y-64050000D02*
X158050000Y-71850000D01*
%TO.C,LED2*%
X148450000Y-64050000D02*
X150050000Y-64050000D01*
X146350000Y-71850000D02*
X146350000Y-64050000D01*
X150050000Y-64050000D02*
X150050000Y-71850000D01*
%TO.C,LED1*%
X140050000Y-64050000D02*
X141650000Y-64050000D01*
X137950000Y-71850000D02*
X137950000Y-64050000D01*
X141650000Y-64050000D02*
X141650000Y-71850000D01*
%TO.C,LED3*%
D11*
X156602380Y-73380952D02*
X156602380Y-72904761D01*
X155602380Y-72904761D01*
X156078571Y-73714285D02*
X156078571Y-74047619D01*
X156602380Y-74190476D02*
X156602380Y-73714285D01*
X155602380Y-73714285D01*
X155602380Y-74190476D01*
X156602380Y-74619047D02*
X155602380Y-74619047D01*
X155602380Y-74857142D01*
X155650000Y-75000000D01*
X155745238Y-75095238D01*
X155840476Y-75142857D01*
X156030952Y-75190476D01*
X156173809Y-75190476D01*
X156364285Y-75142857D01*
X156459523Y-75095238D01*
X156554761Y-75000000D01*
X156602380Y-74857142D01*
X156602380Y-74619047D01*
X155602380Y-75523809D02*
X155602380Y-76142857D01*
X155983333Y-75809523D01*
X155983333Y-75952380D01*
X156030952Y-76047619D01*
X156078571Y-76095238D01*
X156173809Y-76142857D01*
X156411904Y-76142857D01*
X156507142Y-76095238D01*
X156554761Y-76047619D01*
X156602380Y-75952380D01*
X156602380Y-75666666D01*
X156554761Y-75571428D01*
X156507142Y-75523809D01*
%TO.C,LED2*%
X148802380Y-73380952D02*
X148802380Y-72904761D01*
X147802380Y-72904761D01*
X148278571Y-73714285D02*
X148278571Y-74047619D01*
X148802380Y-74190476D02*
X148802380Y-73714285D01*
X147802380Y-73714285D01*
X147802380Y-74190476D01*
X148802380Y-74619047D02*
X147802380Y-74619047D01*
X147802380Y-74857142D01*
X147850000Y-75000000D01*
X147945238Y-75095238D01*
X148040476Y-75142857D01*
X148230952Y-75190476D01*
X148373809Y-75190476D01*
X148564285Y-75142857D01*
X148659523Y-75095238D01*
X148754761Y-75000000D01*
X148802380Y-74857142D01*
X148802380Y-74619047D01*
X147897619Y-75571428D02*
X147850000Y-75619047D01*
X147802380Y-75714285D01*
X147802380Y-75952380D01*
X147850000Y-76047619D01*
X147897619Y-76095238D01*
X147992857Y-76142857D01*
X148088095Y-76142857D01*
X148230952Y-76095238D01*
X148802380Y-75523809D01*
X148802380Y-76142857D01*
%TO.C,LED1*%
X140302380Y-73380952D02*
X140302380Y-72904761D01*
X139302380Y-72904761D01*
X139778571Y-73714285D02*
X139778571Y-74047619D01*
X140302380Y-74190476D02*
X140302380Y-73714285D01*
X139302380Y-73714285D01*
X139302380Y-74190476D01*
X140302380Y-74619047D02*
X139302380Y-74619047D01*
X139302380Y-74857142D01*
X139350000Y-75000000D01*
X139445238Y-75095238D01*
X139540476Y-75142857D01*
X139730952Y-75190476D01*
X139873809Y-75190476D01*
X140064285Y-75142857D01*
X140159523Y-75095238D01*
X140254761Y-75000000D01*
X140302380Y-74857142D01*
X140302380Y-74619047D01*
X140302380Y-76142857D02*
X140302380Y-75571428D01*
X140302380Y-75857142D02*
X139302380Y-75857142D01*
X139445238Y-75761904D01*
X139540476Y-75666666D01*
X139588095Y-75571428D01*
%TD*%
M02*
