M48
; DRILL file {KiCad (5.1.12-1-10_14)} date Sunday, 05 December 2021 at 15:18:27
; FORMAT={-:-/ absolute / inch / decimal}
; #@! TF.CreationDate,2021-12-05T15:18:27+09:00
; #@! TF.GenerationSoftware,Kicad,Pcbnew,(5.1.12-1-10_14)
FMAT,2
INCH
T1C0.0157
T2C0.0320
T3C0.0402
T4C0.0579
T5C0.0591
T6C0.0689
T7C0.0709
T8C0.0866
T9C0.1200
T10C0.1570
%
G90
G05
T1
X5.063Y-2.7795
T2
X3.0394Y-3.2707
X3.0394Y-3.5069
X3.0394Y-4.0266
X3.0394Y-4.2628
X3.7559Y-3.2677
X3.7559Y-3.5039
X3.7559Y-4.0236
X3.7559Y-4.2598
X4.1693Y-4.6732
X4.1693Y-4.9094
X4.5039Y-3.2677
X4.5039Y-3.5039
X4.5039Y-4.0246
X4.5039Y-4.2608
X5.252Y-3.2677
X5.252Y-3.5039
X5.252Y-4.0236
X5.252Y-4.2598
X6.0039Y-3.2677
X6.0039Y-3.5039
X6.0079Y-4.0236
X6.0079Y-4.2598
T3
X3.0028Y-2.1063
X3.0028Y-2.8063
X3.1028Y-2.1063
X3.1028Y-2.8063
X3.2028Y-2.1063
X3.2028Y-2.8063
X3.3028Y-2.1063
X3.3028Y-2.8063
X3.4028Y-2.1063
X3.4028Y-2.8063
X3.5028Y-2.1063
X3.5028Y-2.8063
X3.6028Y-2.1063
X3.6028Y-2.8063
X3.7028Y-2.1063
X3.7028Y-2.8063
X3.8028Y-2.1063
X3.8028Y-2.8063
X3.9028Y-2.1063
X3.9028Y-2.8063
X4.0028Y-2.1063
X4.0028Y-2.8063
X4.1028Y-2.1063
X4.1028Y-2.8063
X4.2028Y-2.1063
X4.2028Y-2.8063
X4.3028Y-2.1063
X4.3028Y-2.8063
X4.4028Y-2.1063
X4.4028Y-2.8063
X4.5028Y-2.1063
X4.5028Y-2.8063
X4.6028Y-2.1063
X4.6028Y-2.8063
X4.7028Y-2.1063
X4.7028Y-2.8063
X4.8028Y-2.1063
X4.8028Y-2.8063
X4.8937Y-2.3563
X4.8937Y-2.4563
X4.8937Y-2.5563
X4.9028Y-2.1063
X4.9028Y-2.8063
T4
X3.228Y-3.2465
X3.228Y-3.9965
X3.478Y-3.1465
X3.478Y-3.8965
X3.978Y-3.2465
X3.978Y-3.9965
X4.228Y-3.1465
X4.228Y-3.8965
X4.728Y-3.2465
X4.728Y-3.9965
X4.728Y-4.7465
X4.978Y-3.1465
X4.978Y-3.8965
X4.978Y-4.6465
X5.478Y-3.2465
X5.478Y-3.9965
X5.728Y-3.1465
X5.728Y-3.8965
X6.228Y-3.2465
X6.228Y-3.9965
X6.478Y-3.1465
X6.478Y-3.8965
T5
X3.1272Y-2.3608
X3.1272Y-2.5518
T6
X3.178Y-3.3465
X3.178Y-4.0965
X3.578Y-3.3465
X3.578Y-4.0965
X3.928Y-3.3465
X3.928Y-4.0965
X4.328Y-3.3465
X4.328Y-4.0965
X4.678Y-3.3465
X4.678Y-4.0965
X4.678Y-4.8465
X5.078Y-3.3465
X5.078Y-4.0965
X5.078Y-4.8465
X5.428Y-3.3465
X5.428Y-4.0965
X5.828Y-3.3465
X5.828Y-4.0965
X6.178Y-3.3465
X6.178Y-4.0965
X6.578Y-3.3465
X6.578Y-4.0965
T7
X3.0079Y-2.349
X3.0079Y-2.5636
T8
X3.063Y-1.8583
X3.5906Y-5.1654
X6.1654Y-5.1654
X6.7008Y-1.8583
T9
X4.4092Y-5.1215
X5.3467Y-5.1215
T10
X3.378Y-3.3465
X3.378Y-4.0965
X4.128Y-3.3465
X4.128Y-4.0965
X4.4092Y-4.5215
X4.878Y-3.3465
X4.878Y-4.0965
X4.878Y-4.8465
X5.3467Y-4.5215
X5.628Y-3.3465
X5.628Y-4.0965
X6.378Y-3.3465
X6.378Y-4.0965
T0
M30
