%TF.GenerationSoftware,KiCad,Pcbnew,(5.1.12-1-10_14)*%
%TF.CreationDate,2021-12-05T15:19:09+09:00*%
%TF.ProjectId,PicoRubyMacroPad,5069636f-5275-4627-994d-6163726f5061,rev?*%
%TF.SameCoordinates,Original*%
%TF.FileFunction,Legend,Top*%
%TF.FilePolarity,Positive*%
%FSLAX46Y46*%
G04 Gerber Fmt 4.6, Leading zero omitted, Abs format (unit mm)*
G04 Created by KiCad (PCBNEW (5.1.12-1-10_14)) date 2021-12-05 15:19:09*
%MOMM*%
%LPD*%
G01*
G04 APERTURE LIST*
%ADD10C,0.120000*%
%ADD11C,0.150000*%
G04 APERTURE END LIST*
D10*
%TO.C,U1*%
X74900000Y-72890000D02*
X74900000Y-51890000D01*
X125900000Y-66090000D02*
X125900000Y-72890000D01*
X77567000Y-72890000D02*
X77567000Y-69883000D01*
X77567000Y-69883000D02*
X74900000Y-69883000D01*
X74900000Y-72890000D02*
X75200000Y-72890000D01*
X77300000Y-72890000D02*
X77700000Y-72890000D01*
X79900000Y-72890000D02*
X80300000Y-72890000D01*
X82400000Y-72890000D02*
X82800000Y-72890000D01*
X85000000Y-72890000D02*
X85400000Y-72890000D01*
X87500000Y-72890000D02*
X87900000Y-72890000D01*
X90000000Y-72890000D02*
X90400000Y-72890000D01*
X92600000Y-72890000D02*
X93000000Y-72890000D01*
X95100000Y-72890000D02*
X95500000Y-72890000D01*
X97700000Y-72890000D02*
X98100000Y-72890000D01*
X100200000Y-72890000D02*
X100600000Y-72890000D01*
X102700000Y-72890000D02*
X103100000Y-72890000D01*
X105300000Y-72890000D02*
X105700000Y-72890000D01*
X107800000Y-72890000D02*
X108200000Y-72890000D01*
X110400000Y-72890000D02*
X110800000Y-72890000D01*
X112900000Y-72890000D02*
X113300000Y-72890000D01*
X115500000Y-72890000D02*
X115900000Y-72890000D01*
X118000000Y-72890000D02*
X118400000Y-72890000D01*
X120500000Y-72890000D02*
X120900000Y-72890000D01*
X123100000Y-72890000D02*
X123500000Y-72890000D01*
X90000000Y-51890000D02*
X90400000Y-51890000D01*
X95100000Y-51890000D02*
X95500000Y-51890000D01*
X102700000Y-51890000D02*
X103100000Y-51890000D01*
X110400000Y-51890000D02*
X110800000Y-51890000D01*
X79900000Y-51890000D02*
X80300000Y-51890000D01*
X77300000Y-51890000D02*
X77700000Y-51890000D01*
X85000000Y-51890000D02*
X85400000Y-51890000D01*
X118000000Y-51890000D02*
X118400000Y-51890000D01*
X123100000Y-51890000D02*
X123500000Y-51890000D01*
X120500000Y-51890000D02*
X120900000Y-51890000D01*
X105300000Y-51890000D02*
X105700000Y-51890000D01*
X100200000Y-51890000D02*
X100600000Y-51890000D01*
X87500000Y-51890000D02*
X87900000Y-51890000D01*
X92600000Y-51890000D02*
X93000000Y-51890000D01*
X112900000Y-51890000D02*
X113300000Y-51890000D01*
X97700000Y-51890000D02*
X98100000Y-51890000D01*
X74900000Y-51890000D02*
X75200000Y-51890000D01*
X82400000Y-51890000D02*
X82800000Y-51890000D01*
X107800000Y-51890000D02*
X108200000Y-51890000D01*
X115500000Y-51890000D02*
X115900000Y-51890000D01*
X125900000Y-51890000D02*
X125900000Y-58690000D01*
X125900000Y-63890000D02*
X125900000Y-63490000D01*
X125900000Y-61290000D02*
X125900000Y-60890000D01*
%TO.C,H4*%
D11*
X155838095Y-139052380D02*
X155838095Y-138052380D01*
X155838095Y-138528571D02*
X156409523Y-138528571D01*
X156409523Y-139052380D02*
X156409523Y-138052380D01*
X157314285Y-138385714D02*
X157314285Y-139052380D01*
X157076190Y-138004761D02*
X156838095Y-138719047D01*
X157457142Y-138719047D01*
%TO.C,H3*%
X90238095Y-137252380D02*
X90238095Y-136252380D01*
X90238095Y-136728571D02*
X90809523Y-136728571D01*
X90809523Y-137252380D02*
X90809523Y-136252380D01*
X91190476Y-136252380D02*
X91809523Y-136252380D01*
X91476190Y-136633333D01*
X91619047Y-136633333D01*
X91714285Y-136680952D01*
X91761904Y-136728571D01*
X91809523Y-136823809D01*
X91809523Y-137061904D01*
X91761904Y-137157142D01*
X91714285Y-137204761D01*
X91619047Y-137252380D01*
X91333333Y-137252380D01*
X91238095Y-137204761D01*
X91190476Y-137157142D01*
%TO.C,H2*%
X169638095Y-40402380D02*
X169638095Y-39402380D01*
X169638095Y-39878571D02*
X170209523Y-39878571D01*
X170209523Y-40402380D02*
X170209523Y-39402380D01*
X170638095Y-39497619D02*
X170685714Y-39450000D01*
X170780952Y-39402380D01*
X171019047Y-39402380D01*
X171114285Y-39450000D01*
X171161904Y-39497619D01*
X171209523Y-39592857D01*
X171209523Y-39688095D01*
X171161904Y-39830952D01*
X170590476Y-40402380D01*
X171209523Y-40402380D01*
%TO.C,H1*%
X77038095Y-37402380D02*
X77038095Y-36402380D01*
X77038095Y-36878571D02*
X77609523Y-36878571D01*
X77609523Y-37402380D02*
X77609523Y-36402380D01*
X78609523Y-37402380D02*
X78038095Y-37402380D01*
X78323809Y-37402380D02*
X78323809Y-36402380D01*
X78228571Y-36545238D01*
X78133333Y-36640476D01*
X78038095Y-36688095D01*
%TO.C,U1*%
X99852380Y-63151904D02*
X100661904Y-63151904D01*
X100757142Y-63104285D01*
X100804761Y-63056666D01*
X100852380Y-62961428D01*
X100852380Y-62770952D01*
X100804761Y-62675714D01*
X100757142Y-62628095D01*
X100661904Y-62580476D01*
X99852380Y-62580476D01*
X100852380Y-61580476D02*
X100852380Y-62151904D01*
X100852380Y-61866190D02*
X99852380Y-61866190D01*
X99995238Y-61961428D01*
X100090476Y-62056666D01*
X100138095Y-62151904D01*
X126923809Y-58485238D02*
X126961904Y-58370952D01*
X126961904Y-58180476D01*
X126923809Y-58104285D01*
X126885714Y-58066190D01*
X126809523Y-58028095D01*
X126733333Y-58028095D01*
X126657142Y-58066190D01*
X126619047Y-58104285D01*
X126580952Y-58180476D01*
X126542857Y-58332857D01*
X126504761Y-58409047D01*
X126466666Y-58447142D01*
X126390476Y-58485238D01*
X126314285Y-58485238D01*
X126238095Y-58447142D01*
X126200000Y-58409047D01*
X126161904Y-58332857D01*
X126161904Y-58142380D01*
X126200000Y-58028095D01*
X126161904Y-57761428D02*
X126961904Y-57570952D01*
X126390476Y-57418571D01*
X126961904Y-57266190D01*
X126161904Y-57075714D01*
X126961904Y-56770952D02*
X126161904Y-56770952D01*
X126161904Y-56580476D01*
X126200000Y-56466190D01*
X126276190Y-56390000D01*
X126352380Y-56351904D01*
X126504761Y-56313809D01*
X126619047Y-56313809D01*
X126771428Y-56351904D01*
X126847619Y-56390000D01*
X126923809Y-56466190D01*
X126961904Y-56580476D01*
X126961904Y-56770952D01*
X126961904Y-55970952D02*
X126161904Y-55970952D01*
X126161904Y-55437619D02*
X126161904Y-55285238D01*
X126200000Y-55209047D01*
X126276190Y-55132857D01*
X126428571Y-55094761D01*
X126695238Y-55094761D01*
X126847619Y-55132857D01*
X126923809Y-55209047D01*
X126961904Y-55285238D01*
X126961904Y-55437619D01*
X126923809Y-55513809D01*
X126847619Y-55590000D01*
X126695238Y-55628095D01*
X126428571Y-55628095D01*
X126276190Y-55590000D01*
X126200000Y-55513809D01*
X126161904Y-55437619D01*
X126923809Y-69899523D02*
X126961904Y-69785238D01*
X126961904Y-69594761D01*
X126923809Y-69518571D01*
X126885714Y-69480476D01*
X126809523Y-69442380D01*
X126733333Y-69442380D01*
X126657142Y-69480476D01*
X126619047Y-69518571D01*
X126580952Y-69594761D01*
X126542857Y-69747142D01*
X126504761Y-69823333D01*
X126466666Y-69861428D01*
X126390476Y-69899523D01*
X126314285Y-69899523D01*
X126238095Y-69861428D01*
X126200000Y-69823333D01*
X126161904Y-69747142D01*
X126161904Y-69556666D01*
X126200000Y-69442380D01*
X126161904Y-69175714D02*
X126961904Y-68985238D01*
X126390476Y-68832857D01*
X126961904Y-68680476D01*
X126161904Y-68490000D01*
X126885714Y-67728095D02*
X126923809Y-67766190D01*
X126961904Y-67880476D01*
X126961904Y-67956666D01*
X126923809Y-68070952D01*
X126847619Y-68147142D01*
X126771428Y-68185238D01*
X126619047Y-68223333D01*
X126504761Y-68223333D01*
X126352380Y-68185238D01*
X126276190Y-68147142D01*
X126200000Y-68070952D01*
X126161904Y-67956666D01*
X126161904Y-67880476D01*
X126200000Y-67766190D01*
X126238095Y-67728095D01*
X126961904Y-67004285D02*
X126961904Y-67385238D01*
X126161904Y-67385238D01*
X126961904Y-66737619D02*
X126161904Y-66737619D01*
X126961904Y-66280476D02*
X126504761Y-66623333D01*
X126161904Y-66280476D02*
X126619047Y-66737619D01*
X92959035Y-48433597D02*
X93228409Y-48702971D01*
X92743536Y-48541346D02*
X93497783Y-48164223D01*
X93120659Y-48918470D01*
X94144280Y-48864595D02*
X94117343Y-48783783D01*
X94036531Y-48702971D01*
X93928781Y-48649096D01*
X93821032Y-48649096D01*
X93740219Y-48676033D01*
X93605532Y-48756845D01*
X93524720Y-48837658D01*
X93443908Y-48972345D01*
X93416971Y-49053157D01*
X93416971Y-49160906D01*
X93470845Y-49268656D01*
X93524720Y-49322531D01*
X93632470Y-49376406D01*
X93686345Y-49376406D01*
X93874906Y-49187844D01*
X93767157Y-49080094D01*
X93874906Y-49672717D02*
X94440592Y-49107032D01*
X94198155Y-49995966D01*
X94763841Y-49430280D01*
X94467529Y-50265340D02*
X95033215Y-49699654D01*
X95167902Y-49834341D01*
X95221776Y-49942091D01*
X95221776Y-50049841D01*
X95194839Y-50130653D01*
X95114027Y-50265340D01*
X95033215Y-50346152D01*
X94898528Y-50426964D01*
X94817715Y-50453902D01*
X94709966Y-50453902D01*
X94602216Y-50400027D01*
X94467529Y-50265340D01*
X81201844Y-48876158D02*
X81174906Y-48795346D01*
X81094094Y-48714534D01*
X80986345Y-48660659D01*
X80878595Y-48660659D01*
X80797783Y-48687597D01*
X80663096Y-48768409D01*
X80582284Y-48849221D01*
X80501471Y-48983908D01*
X80474534Y-49064720D01*
X80474534Y-49172470D01*
X80528409Y-49280219D01*
X80582284Y-49334094D01*
X80690033Y-49387969D01*
X80743908Y-49387969D01*
X80932470Y-49199407D01*
X80824720Y-49091658D01*
X80932470Y-49684280D02*
X81498155Y-49118595D01*
X81255719Y-50007529D01*
X81821404Y-49441844D01*
X81525093Y-50276903D02*
X82090778Y-49711218D01*
X82225465Y-49845905D01*
X82279340Y-49953654D01*
X82279340Y-50061404D01*
X82252402Y-50142216D01*
X82171590Y-50276903D01*
X82090778Y-50357715D01*
X81956091Y-50438528D01*
X81875279Y-50465465D01*
X81767529Y-50465465D01*
X81659780Y-50411590D01*
X81525093Y-50276903D01*
X106601844Y-48876158D02*
X106574906Y-48795346D01*
X106494094Y-48714534D01*
X106386345Y-48660659D01*
X106278595Y-48660659D01*
X106197783Y-48687597D01*
X106063096Y-48768409D01*
X105982284Y-48849221D01*
X105901471Y-48983908D01*
X105874534Y-49064720D01*
X105874534Y-49172470D01*
X105928409Y-49280219D01*
X105982284Y-49334094D01*
X106090033Y-49387969D01*
X106143908Y-49387969D01*
X106332470Y-49199407D01*
X106224720Y-49091658D01*
X106332470Y-49684280D02*
X106898155Y-49118595D01*
X106655719Y-50007529D01*
X107221404Y-49441844D01*
X106925093Y-50276903D02*
X107490778Y-49711218D01*
X107625465Y-49845905D01*
X107679340Y-49953654D01*
X107679340Y-50061404D01*
X107652402Y-50142216D01*
X107571590Y-50276903D01*
X107490778Y-50357715D01*
X107356091Y-50438528D01*
X107275279Y-50465465D01*
X107167529Y-50465465D01*
X107059780Y-50411590D01*
X106925093Y-50276903D01*
X119301844Y-48876158D02*
X119274906Y-48795346D01*
X119194094Y-48714534D01*
X119086345Y-48660659D01*
X118978595Y-48660659D01*
X118897783Y-48687597D01*
X118763096Y-48768409D01*
X118682284Y-48849221D01*
X118601471Y-48983908D01*
X118574534Y-49064720D01*
X118574534Y-49172470D01*
X118628409Y-49280219D01*
X118682284Y-49334094D01*
X118790033Y-49387969D01*
X118843908Y-49387969D01*
X119032470Y-49199407D01*
X118924720Y-49091658D01*
X119032470Y-49684280D02*
X119598155Y-49118595D01*
X119355719Y-50007529D01*
X119921404Y-49441844D01*
X119625093Y-50276903D02*
X120190778Y-49711218D01*
X120325465Y-49845905D01*
X120379340Y-49953654D01*
X120379340Y-50061404D01*
X120352402Y-50142216D01*
X120271590Y-50276903D01*
X120190778Y-50357715D01*
X120056091Y-50438528D01*
X119975279Y-50465465D01*
X119867529Y-50465465D01*
X119759780Y-50411590D01*
X119625093Y-50276903D01*
X119301844Y-74476158D02*
X119274906Y-74395346D01*
X119194094Y-74314534D01*
X119086345Y-74260659D01*
X118978595Y-74260659D01*
X118897783Y-74287597D01*
X118763096Y-74368409D01*
X118682284Y-74449221D01*
X118601471Y-74583908D01*
X118574534Y-74664720D01*
X118574534Y-74772470D01*
X118628409Y-74880219D01*
X118682284Y-74934094D01*
X118790033Y-74987969D01*
X118843908Y-74987969D01*
X119032470Y-74799407D01*
X118924720Y-74691658D01*
X119032470Y-75284280D02*
X119598155Y-74718595D01*
X119355719Y-75607529D01*
X119921404Y-75041844D01*
X119625093Y-75876903D02*
X120190778Y-75311218D01*
X120325465Y-75445905D01*
X120379340Y-75553654D01*
X120379340Y-75661404D01*
X120352402Y-75742216D01*
X120271590Y-75876903D01*
X120190778Y-75957715D01*
X120056091Y-76038528D01*
X119975279Y-76065465D01*
X119867529Y-76065465D01*
X119759780Y-76011590D01*
X119625093Y-75876903D01*
X106601844Y-74476158D02*
X106574906Y-74395346D01*
X106494094Y-74314534D01*
X106386345Y-74260659D01*
X106278595Y-74260659D01*
X106197783Y-74287597D01*
X106063096Y-74368409D01*
X105982284Y-74449221D01*
X105901471Y-74583908D01*
X105874534Y-74664720D01*
X105874534Y-74772470D01*
X105928409Y-74880219D01*
X105982284Y-74934094D01*
X106090033Y-74987969D01*
X106143908Y-74987969D01*
X106332470Y-74799407D01*
X106224720Y-74691658D01*
X106332470Y-75284280D02*
X106898155Y-74718595D01*
X106655719Y-75607529D01*
X107221404Y-75041844D01*
X106925093Y-75876903D02*
X107490778Y-75311218D01*
X107625465Y-75445905D01*
X107679340Y-75553654D01*
X107679340Y-75661404D01*
X107652402Y-75742216D01*
X107571590Y-75876903D01*
X107490778Y-75957715D01*
X107356091Y-76038528D01*
X107275279Y-76065465D01*
X107167529Y-76065465D01*
X107059780Y-76011590D01*
X106925093Y-75876903D01*
X93901844Y-74476158D02*
X93874906Y-74395346D01*
X93794094Y-74314534D01*
X93686345Y-74260659D01*
X93578595Y-74260659D01*
X93497783Y-74287597D01*
X93363096Y-74368409D01*
X93282284Y-74449221D01*
X93201471Y-74583908D01*
X93174534Y-74664720D01*
X93174534Y-74772470D01*
X93228409Y-74880219D01*
X93282284Y-74934094D01*
X93390033Y-74987969D01*
X93443908Y-74987969D01*
X93632470Y-74799407D01*
X93524720Y-74691658D01*
X93632470Y-75284280D02*
X94198155Y-74718595D01*
X93955719Y-75607529D01*
X94521404Y-75041844D01*
X94225093Y-75876903D02*
X94790778Y-75311218D01*
X94925465Y-75445905D01*
X94979340Y-75553654D01*
X94979340Y-75661404D01*
X94952402Y-75742216D01*
X94871590Y-75876903D01*
X94790778Y-75957715D01*
X94656091Y-76038528D01*
X94575279Y-76065465D01*
X94467529Y-76065465D01*
X94359780Y-76011590D01*
X94225093Y-75876903D01*
X81201844Y-74476158D02*
X81174906Y-74395346D01*
X81094094Y-74314534D01*
X80986345Y-74260659D01*
X80878595Y-74260659D01*
X80797783Y-74287597D01*
X80663096Y-74368409D01*
X80582284Y-74449221D01*
X80501471Y-74583908D01*
X80474534Y-74664720D01*
X80474534Y-74772470D01*
X80528409Y-74880219D01*
X80582284Y-74934094D01*
X80690033Y-74987969D01*
X80743908Y-74987969D01*
X80932470Y-74799407D01*
X80824720Y-74691658D01*
X80932470Y-75284280D02*
X81498155Y-74718595D01*
X81255719Y-75607529D01*
X81821404Y-75041844D01*
X81525093Y-75876903D02*
X82090778Y-75311218D01*
X82225465Y-75445905D01*
X82279340Y-75553654D01*
X82279340Y-75661404D01*
X82252402Y-75742216D01*
X82171590Y-75876903D01*
X82090778Y-75957715D01*
X81956091Y-76038528D01*
X81875279Y-76065465D01*
X81767529Y-76065465D01*
X81659780Y-76011590D01*
X81525093Y-75876903D01*
X75472690Y-47743129D02*
X75095566Y-48497377D01*
X75849813Y-48120253D01*
X75957563Y-48766751D02*
X76011438Y-48874500D01*
X76011438Y-48928375D01*
X75984500Y-49009187D01*
X75903688Y-49089999D01*
X75822876Y-49116937D01*
X75769001Y-49116937D01*
X75688189Y-49090000D01*
X75472690Y-48874500D01*
X76038375Y-48308815D01*
X76226937Y-48497377D01*
X76253874Y-48578189D01*
X76253874Y-48632064D01*
X76226937Y-48712876D01*
X76173062Y-48766751D01*
X76092250Y-48793688D01*
X76038375Y-48793688D01*
X75957563Y-48766751D01*
X75769001Y-48578189D01*
X76604061Y-48874500D02*
X76146125Y-49332436D01*
X76119187Y-49413248D01*
X76119187Y-49467123D01*
X76146125Y-49547935D01*
X76253874Y-49655685D01*
X76334687Y-49682622D01*
X76388561Y-49682622D01*
X76469374Y-49655685D01*
X76927309Y-49197749D01*
X76630998Y-49978934D02*
X76684873Y-50086683D01*
X76819560Y-50221370D01*
X76900372Y-50248308D01*
X76954247Y-50248308D01*
X77035059Y-50221370D01*
X77088934Y-50167496D01*
X77115871Y-50086683D01*
X77115871Y-50032809D01*
X77088934Y-49951996D01*
X77008122Y-49817309D01*
X76981184Y-49736497D01*
X76981184Y-49682622D01*
X77008122Y-49601810D01*
X77061996Y-49547935D01*
X77142809Y-49520998D01*
X77196683Y-49520998D01*
X77277496Y-49547935D01*
X77412183Y-49682622D01*
X77466057Y-49790372D01*
X78150033Y-47910473D02*
X77772910Y-48664720D01*
X78527157Y-48287597D01*
X78150033Y-48987969D02*
X78203908Y-49095719D01*
X78338595Y-49230406D01*
X78419407Y-49257343D01*
X78473282Y-49257343D01*
X78554094Y-49230406D01*
X78607969Y-49176531D01*
X78634906Y-49095719D01*
X78634906Y-49041844D01*
X78607969Y-48961032D01*
X78527157Y-48826345D01*
X78500219Y-48745532D01*
X78500219Y-48691658D01*
X78527157Y-48610845D01*
X78581032Y-48556971D01*
X78661844Y-48530033D01*
X78715719Y-48530033D01*
X78796531Y-48556971D01*
X78931218Y-48691658D01*
X78985093Y-48799407D01*
X79065905Y-49418967D02*
X78796531Y-49688341D01*
X79173654Y-48934094D02*
X79065905Y-49418967D01*
X79550778Y-49311218D01*
X79173654Y-50011590D02*
X79227529Y-50119340D01*
X79362216Y-50254027D01*
X79443028Y-50280964D01*
X79496903Y-50280964D01*
X79577715Y-50254027D01*
X79631590Y-50200152D01*
X79658528Y-50119340D01*
X79658528Y-50065465D01*
X79631590Y-49984653D01*
X79550778Y-49849966D01*
X79523841Y-49769154D01*
X79523841Y-49715279D01*
X79550778Y-49634467D01*
X79604653Y-49580592D01*
X79685465Y-49553654D01*
X79739340Y-49553654D01*
X79820152Y-49580592D01*
X79954839Y-49715279D01*
X80008714Y-49823028D01*
X82041691Y-46912131D02*
X82391877Y-47262317D01*
X81987816Y-47289255D01*
X82068629Y-47370067D01*
X82095566Y-47450879D01*
X82095566Y-47504754D01*
X82068629Y-47585566D01*
X81933942Y-47720253D01*
X81853129Y-47747190D01*
X81799255Y-47747190D01*
X81718442Y-47720253D01*
X81556818Y-47558629D01*
X81529881Y-47477816D01*
X81529881Y-47423942D01*
X82553502Y-47423942D02*
X82176378Y-48178189D01*
X82930625Y-47801065D01*
X83065312Y-47935752D02*
X83415499Y-48285938D01*
X83011438Y-48312876D01*
X83092250Y-48393688D01*
X83119187Y-48474500D01*
X83119187Y-48528375D01*
X83092250Y-48609187D01*
X82957563Y-48743874D01*
X82876751Y-48770812D01*
X82822876Y-48770812D01*
X82742064Y-48743874D01*
X82580439Y-48582250D01*
X82553502Y-48501438D01*
X82553502Y-48447563D01*
X82903688Y-49013248D02*
X83334687Y-49444247D01*
X83819560Y-49228748D02*
X84008122Y-49417309D01*
X83792622Y-49794433D02*
X83523248Y-49525059D01*
X84088934Y-48959374D01*
X84358308Y-49228748D01*
X84035059Y-50036870D02*
X84600744Y-49471184D01*
X84358308Y-50360118D01*
X84923993Y-49794433D01*
X86109407Y-48479847D02*
X86459593Y-48830033D01*
X86055532Y-48856971D01*
X86136345Y-48937783D01*
X86163282Y-49018595D01*
X86163282Y-49072470D01*
X86136345Y-49153282D01*
X86001658Y-49287969D01*
X85920845Y-49314906D01*
X85866971Y-49314906D01*
X85786158Y-49287969D01*
X85624534Y-49126345D01*
X85597597Y-49045532D01*
X85597597Y-48991658D01*
X86621218Y-48991658D02*
X86244094Y-49745905D01*
X86998341Y-49368781D01*
X87133028Y-49503468D02*
X87483215Y-49853654D01*
X87079154Y-49880592D01*
X87159966Y-49961404D01*
X87186903Y-50042216D01*
X87186903Y-50096091D01*
X87159966Y-50176903D01*
X87025279Y-50311590D01*
X86944467Y-50338528D01*
X86890592Y-50338528D01*
X86809780Y-50311590D01*
X86648155Y-50149966D01*
X86621218Y-50069154D01*
X86621218Y-50015279D01*
X85866226Y-46544788D02*
X86135600Y-46814162D01*
X85650727Y-46652537D02*
X86404974Y-46275414D01*
X86027850Y-47029661D01*
X86216412Y-47218223D02*
X86782097Y-46652537D01*
X86916784Y-46787224D01*
X86970659Y-46894974D01*
X86970659Y-47002723D01*
X86943722Y-47083536D01*
X86862910Y-47218223D01*
X86782097Y-47299035D01*
X86647410Y-47379847D01*
X86566598Y-47406784D01*
X86458849Y-47406784D01*
X86351099Y-47352910D01*
X86216412Y-47218223D01*
X87159221Y-48053282D02*
X87105346Y-48053282D01*
X86997597Y-47999407D01*
X86943722Y-47945532D01*
X86889847Y-47837783D01*
X86889847Y-47730033D01*
X86916784Y-47649221D01*
X86997597Y-47514534D01*
X87078409Y-47433722D01*
X87213096Y-47352910D01*
X87293908Y-47325972D01*
X87401658Y-47325972D01*
X87509407Y-47379847D01*
X87563282Y-47433722D01*
X87617157Y-47541471D01*
X87617157Y-47595346D01*
X87159221Y-48268781D02*
X87590219Y-48699780D01*
X88263654Y-48134094D02*
X87886531Y-48888341D01*
X88640778Y-48511218D01*
X88586903Y-49588714D02*
X88667715Y-49130778D01*
X88263654Y-49265465D02*
X88829340Y-48699780D01*
X89044839Y-48915279D01*
X89071776Y-48996091D01*
X89071776Y-49049966D01*
X89044839Y-49130778D01*
X88964027Y-49211590D01*
X88883215Y-49238528D01*
X88829340Y-49238528D01*
X88748528Y-49211590D01*
X88533028Y-48996091D01*
X89125651Y-49534839D02*
X89314213Y-49723401D01*
X89098714Y-50100524D02*
X88829340Y-49831150D01*
X89395025Y-49265465D01*
X89664399Y-49534839D01*
X89826024Y-50235211D02*
X89637462Y-50046650D01*
X89341150Y-50342961D02*
X89906836Y-49777276D01*
X90176210Y-50046650D01*
X90865407Y-48379722D02*
X90838470Y-48298910D01*
X90757658Y-48218097D01*
X90649908Y-48164223D01*
X90542158Y-48164223D01*
X90461346Y-48191160D01*
X90326659Y-48271972D01*
X90245847Y-48352784D01*
X90165035Y-48487471D01*
X90138097Y-48568284D01*
X90138097Y-48676033D01*
X90191972Y-48783783D01*
X90245847Y-48837658D01*
X90353597Y-48891532D01*
X90407471Y-48891532D01*
X90596033Y-48702971D01*
X90488284Y-48595221D01*
X90596033Y-49187844D02*
X91161719Y-48622158D01*
X91377218Y-48837658D01*
X91404155Y-48918470D01*
X91404155Y-48972345D01*
X91377218Y-49053157D01*
X91296406Y-49133969D01*
X91215593Y-49160906D01*
X91161719Y-49160906D01*
X91080906Y-49133969D01*
X90865407Y-48918470D01*
X91646592Y-49214781D02*
X91700467Y-49214781D01*
X91781279Y-49241719D01*
X91915966Y-49376406D01*
X91942903Y-49457218D01*
X91942903Y-49511093D01*
X91915966Y-49591905D01*
X91862091Y-49645780D01*
X91754341Y-49699654D01*
X91107844Y-49699654D01*
X91458030Y-50049841D01*
X92104528Y-50049841D02*
X92077590Y-49969028D01*
X92077590Y-49915154D01*
X92104528Y-49834341D01*
X92131465Y-49807404D01*
X92212277Y-49780467D01*
X92266152Y-49780467D01*
X92346964Y-49807404D01*
X92454714Y-49915154D01*
X92481651Y-49995966D01*
X92481651Y-50049841D01*
X92454714Y-50130653D01*
X92427776Y-50157590D01*
X92346964Y-50184528D01*
X92293089Y-50184528D01*
X92212277Y-50157590D01*
X92104528Y-50049841D01*
X92023715Y-50022903D01*
X91969841Y-50022903D01*
X91889028Y-50049841D01*
X91781279Y-50157590D01*
X91754341Y-50238402D01*
X91754341Y-50292277D01*
X91781279Y-50373089D01*
X91889028Y-50480839D01*
X91969841Y-50507776D01*
X92023715Y-50507776D01*
X92104528Y-50480839D01*
X92212277Y-50373089D01*
X92239215Y-50292277D01*
X92239215Y-50238402D01*
X92212277Y-50157590D01*
X96209407Y-48379722D02*
X96182470Y-48298910D01*
X96101658Y-48218097D01*
X95993908Y-48164223D01*
X95886158Y-48164223D01*
X95805346Y-48191160D01*
X95670659Y-48271972D01*
X95589847Y-48352784D01*
X95509035Y-48487471D01*
X95482097Y-48568284D01*
X95482097Y-48676033D01*
X95535972Y-48783783D01*
X95589847Y-48837658D01*
X95697597Y-48891532D01*
X95751471Y-48891532D01*
X95940033Y-48702971D01*
X95832284Y-48595221D01*
X95940033Y-49187844D02*
X96505719Y-48622158D01*
X96721218Y-48837658D01*
X96748155Y-48918470D01*
X96748155Y-48972345D01*
X96721218Y-49053157D01*
X96640406Y-49133969D01*
X96559593Y-49160906D01*
X96505719Y-49160906D01*
X96424906Y-49133969D01*
X96209407Y-48918470D01*
X96990592Y-49214781D02*
X97044467Y-49214781D01*
X97125279Y-49241719D01*
X97259966Y-49376406D01*
X97286903Y-49457218D01*
X97286903Y-49511093D01*
X97259966Y-49591905D01*
X97206091Y-49645780D01*
X97098341Y-49699654D01*
X96451844Y-49699654D01*
X96802030Y-50049841D01*
X97556277Y-49672717D02*
X97933401Y-50049841D01*
X97125279Y-50373089D01*
X98739407Y-48379722D02*
X98712470Y-48298910D01*
X98631658Y-48218097D01*
X98523908Y-48164223D01*
X98416158Y-48164223D01*
X98335346Y-48191160D01*
X98200659Y-48271972D01*
X98119847Y-48352784D01*
X98039035Y-48487471D01*
X98012097Y-48568284D01*
X98012097Y-48676033D01*
X98065972Y-48783783D01*
X98119847Y-48837658D01*
X98227597Y-48891532D01*
X98281471Y-48891532D01*
X98470033Y-48702971D01*
X98362284Y-48595221D01*
X98470033Y-49187844D02*
X99035719Y-48622158D01*
X99251218Y-48837658D01*
X99278155Y-48918470D01*
X99278155Y-48972345D01*
X99251218Y-49053157D01*
X99170406Y-49133969D01*
X99089593Y-49160906D01*
X99035719Y-49160906D01*
X98954906Y-49133969D01*
X98739407Y-48918470D01*
X99520592Y-49214781D02*
X99574467Y-49214781D01*
X99655279Y-49241719D01*
X99789966Y-49376406D01*
X99816903Y-49457218D01*
X99816903Y-49511093D01*
X99789966Y-49591905D01*
X99736091Y-49645780D01*
X99628341Y-49699654D01*
X98981844Y-49699654D01*
X99332030Y-50049841D01*
X100382589Y-49969028D02*
X100274839Y-49861279D01*
X100194027Y-49834341D01*
X100140152Y-49834341D01*
X100005465Y-49861279D01*
X99870778Y-49942091D01*
X99655279Y-50157590D01*
X99628341Y-50238402D01*
X99628341Y-50292277D01*
X99655279Y-50373089D01*
X99763028Y-50480839D01*
X99843841Y-50507776D01*
X99897715Y-50507776D01*
X99978528Y-50480839D01*
X100113215Y-50346152D01*
X100140152Y-50265340D01*
X100140152Y-50211465D01*
X100113215Y-50130653D01*
X100005465Y-50022903D01*
X99924653Y-49995966D01*
X99870778Y-49995966D01*
X99789966Y-50022903D01*
X100996564Y-49228375D02*
X101077377Y-48770439D01*
X100673316Y-48905126D02*
X101239001Y-48339441D01*
X101454500Y-48554940D01*
X101481438Y-48635752D01*
X101481438Y-48689627D01*
X101454500Y-48770439D01*
X101373688Y-48851251D01*
X101292876Y-48878189D01*
X101239001Y-48878189D01*
X101158189Y-48851251D01*
X100942690Y-48635752D01*
X101804687Y-48905126D02*
X101346751Y-49363062D01*
X101319813Y-49443874D01*
X101319813Y-49497749D01*
X101346751Y-49578561D01*
X101454500Y-49686311D01*
X101535312Y-49713248D01*
X101589187Y-49713248D01*
X101670000Y-49686311D01*
X102127935Y-49228375D01*
X101831624Y-50063435D02*
X102397309Y-49497749D01*
X102154873Y-50386683D01*
X102720558Y-49820998D01*
X103819407Y-48379722D02*
X103792470Y-48298910D01*
X103711658Y-48218097D01*
X103603908Y-48164223D01*
X103496158Y-48164223D01*
X103415346Y-48191160D01*
X103280659Y-48271972D01*
X103199847Y-48352784D01*
X103119035Y-48487471D01*
X103092097Y-48568284D01*
X103092097Y-48676033D01*
X103145972Y-48783783D01*
X103199847Y-48837658D01*
X103307597Y-48891532D01*
X103361471Y-48891532D01*
X103550033Y-48702971D01*
X103442284Y-48595221D01*
X103550033Y-49187844D02*
X104115719Y-48622158D01*
X104331218Y-48837658D01*
X104358155Y-48918470D01*
X104358155Y-48972345D01*
X104331218Y-49053157D01*
X104250406Y-49133969D01*
X104169593Y-49160906D01*
X104115719Y-49160906D01*
X104034906Y-49133969D01*
X103819407Y-48918470D01*
X104600592Y-49214781D02*
X104654467Y-49214781D01*
X104735279Y-49241719D01*
X104869966Y-49376406D01*
X104896903Y-49457218D01*
X104896903Y-49511093D01*
X104869966Y-49591905D01*
X104816091Y-49645780D01*
X104708341Y-49699654D01*
X104061844Y-49699654D01*
X104412030Y-50049841D01*
X105139340Y-49753529D02*
X105193215Y-49753529D01*
X105274027Y-49780467D01*
X105408714Y-49915154D01*
X105435651Y-49995966D01*
X105435651Y-50049841D01*
X105408714Y-50130653D01*
X105354839Y-50184528D01*
X105247089Y-50238402D01*
X104600592Y-50238402D01*
X104950778Y-50588589D01*
X108909407Y-48379722D02*
X108882470Y-48298910D01*
X108801658Y-48218097D01*
X108693908Y-48164223D01*
X108586158Y-48164223D01*
X108505346Y-48191160D01*
X108370659Y-48271972D01*
X108289847Y-48352784D01*
X108209035Y-48487471D01*
X108182097Y-48568284D01*
X108182097Y-48676033D01*
X108235972Y-48783783D01*
X108289847Y-48837658D01*
X108397597Y-48891532D01*
X108451471Y-48891532D01*
X108640033Y-48702971D01*
X108532284Y-48595221D01*
X108640033Y-49187844D02*
X109205719Y-48622158D01*
X109421218Y-48837658D01*
X109448155Y-48918470D01*
X109448155Y-48972345D01*
X109421218Y-49053157D01*
X109340406Y-49133969D01*
X109259593Y-49160906D01*
X109205719Y-49160906D01*
X109124906Y-49133969D01*
X108909407Y-48918470D01*
X109690592Y-49214781D02*
X109744467Y-49214781D01*
X109825279Y-49241719D01*
X109959966Y-49376406D01*
X109986903Y-49457218D01*
X109986903Y-49511093D01*
X109959966Y-49591905D01*
X109906091Y-49645780D01*
X109798341Y-49699654D01*
X109151844Y-49699654D01*
X109502030Y-50049841D01*
X110040778Y-50588589D02*
X109717529Y-50265340D01*
X109879154Y-50426964D02*
X110444839Y-49861279D01*
X110310152Y-49888216D01*
X110202402Y-49888216D01*
X110121590Y-49861279D01*
X111439407Y-48379722D02*
X111412470Y-48298910D01*
X111331658Y-48218097D01*
X111223908Y-48164223D01*
X111116158Y-48164223D01*
X111035346Y-48191160D01*
X110900659Y-48271972D01*
X110819847Y-48352784D01*
X110739035Y-48487471D01*
X110712097Y-48568284D01*
X110712097Y-48676033D01*
X110765972Y-48783783D01*
X110819847Y-48837658D01*
X110927597Y-48891532D01*
X110981471Y-48891532D01*
X111170033Y-48702971D01*
X111062284Y-48595221D01*
X111170033Y-49187844D02*
X111735719Y-48622158D01*
X111951218Y-48837658D01*
X111978155Y-48918470D01*
X111978155Y-48972345D01*
X111951218Y-49053157D01*
X111870406Y-49133969D01*
X111789593Y-49160906D01*
X111735719Y-49160906D01*
X111654906Y-49133969D01*
X111439407Y-48918470D01*
X112220592Y-49214781D02*
X112274467Y-49214781D01*
X112355279Y-49241719D01*
X112489966Y-49376406D01*
X112516903Y-49457218D01*
X112516903Y-49511093D01*
X112489966Y-49591905D01*
X112436091Y-49645780D01*
X112328341Y-49699654D01*
X111681844Y-49699654D01*
X112032030Y-50049841D01*
X112947902Y-49834341D02*
X113001776Y-49888216D01*
X113028714Y-49969028D01*
X113028714Y-50022903D01*
X113001776Y-50103715D01*
X112920964Y-50238402D01*
X112786277Y-50373089D01*
X112651590Y-50453902D01*
X112570778Y-50480839D01*
X112516903Y-50480839D01*
X112436091Y-50453902D01*
X112382216Y-50400027D01*
X112355279Y-50319215D01*
X112355279Y-50265340D01*
X112382216Y-50184528D01*
X112463028Y-50049841D01*
X112597715Y-49915154D01*
X112732402Y-49834341D01*
X112813215Y-49807404D01*
X112867089Y-49807404D01*
X112947902Y-49834341D01*
X113979407Y-48379722D02*
X113952470Y-48298910D01*
X113871658Y-48218097D01*
X113763908Y-48164223D01*
X113656158Y-48164223D01*
X113575346Y-48191160D01*
X113440659Y-48271972D01*
X113359847Y-48352784D01*
X113279035Y-48487471D01*
X113252097Y-48568284D01*
X113252097Y-48676033D01*
X113305972Y-48783783D01*
X113359847Y-48837658D01*
X113467597Y-48891532D01*
X113521471Y-48891532D01*
X113710033Y-48702971D01*
X113602284Y-48595221D01*
X113710033Y-49187844D02*
X114275719Y-48622158D01*
X114491218Y-48837658D01*
X114518155Y-48918470D01*
X114518155Y-48972345D01*
X114491218Y-49053157D01*
X114410406Y-49133969D01*
X114329593Y-49160906D01*
X114275719Y-49160906D01*
X114194906Y-49133969D01*
X113979407Y-48918470D01*
X114572030Y-50049841D02*
X114248781Y-49726592D01*
X114410406Y-49888216D02*
X114976091Y-49322531D01*
X114841404Y-49349468D01*
X114733654Y-49349468D01*
X114652842Y-49322531D01*
X114841404Y-50319215D02*
X114949154Y-50426964D01*
X115029966Y-50453902D01*
X115083841Y-50453902D01*
X115218528Y-50426964D01*
X115353215Y-50346152D01*
X115568714Y-50130653D01*
X115595651Y-50049841D01*
X115595651Y-49995966D01*
X115568714Y-49915154D01*
X115460964Y-49807404D01*
X115380152Y-49780467D01*
X115326277Y-49780467D01*
X115245465Y-49807404D01*
X115110778Y-49942091D01*
X115083841Y-50022903D01*
X115083841Y-50076778D01*
X115110778Y-50157590D01*
X115218528Y-50265340D01*
X115299340Y-50292277D01*
X115353215Y-50292277D01*
X115434027Y-50265340D01*
X116519407Y-48379722D02*
X116492470Y-48298910D01*
X116411658Y-48218097D01*
X116303908Y-48164223D01*
X116196158Y-48164223D01*
X116115346Y-48191160D01*
X115980659Y-48271972D01*
X115899847Y-48352784D01*
X115819035Y-48487471D01*
X115792097Y-48568284D01*
X115792097Y-48676033D01*
X115845972Y-48783783D01*
X115899847Y-48837658D01*
X116007597Y-48891532D01*
X116061471Y-48891532D01*
X116250033Y-48702971D01*
X116142284Y-48595221D01*
X116250033Y-49187844D02*
X116815719Y-48622158D01*
X117031218Y-48837658D01*
X117058155Y-48918470D01*
X117058155Y-48972345D01*
X117031218Y-49053157D01*
X116950406Y-49133969D01*
X116869593Y-49160906D01*
X116815719Y-49160906D01*
X116734906Y-49133969D01*
X116519407Y-48918470D01*
X117112030Y-50049841D02*
X116788781Y-49726592D01*
X116950406Y-49888216D02*
X117516091Y-49322531D01*
X117381404Y-49349468D01*
X117273654Y-49349468D01*
X117192842Y-49322531D01*
X117758528Y-50049841D02*
X117731590Y-49969028D01*
X117731590Y-49915154D01*
X117758528Y-49834341D01*
X117785465Y-49807404D01*
X117866277Y-49780467D01*
X117920152Y-49780467D01*
X118000964Y-49807404D01*
X118108714Y-49915154D01*
X118135651Y-49995966D01*
X118135651Y-50049841D01*
X118108714Y-50130653D01*
X118081776Y-50157590D01*
X118000964Y-50184528D01*
X117947089Y-50184528D01*
X117866277Y-50157590D01*
X117758528Y-50049841D01*
X117677715Y-50022903D01*
X117623841Y-50022903D01*
X117543028Y-50049841D01*
X117435279Y-50157590D01*
X117408341Y-50238402D01*
X117408341Y-50292277D01*
X117435279Y-50373089D01*
X117543028Y-50480839D01*
X117623841Y-50507776D01*
X117677715Y-50507776D01*
X117758528Y-50480839D01*
X117866277Y-50373089D01*
X117893215Y-50292277D01*
X117893215Y-50238402D01*
X117866277Y-50157590D01*
X121599407Y-48379722D02*
X121572470Y-48298910D01*
X121491658Y-48218097D01*
X121383908Y-48164223D01*
X121276158Y-48164223D01*
X121195346Y-48191160D01*
X121060659Y-48271972D01*
X120979847Y-48352784D01*
X120899035Y-48487471D01*
X120872097Y-48568284D01*
X120872097Y-48676033D01*
X120925972Y-48783783D01*
X120979847Y-48837658D01*
X121087597Y-48891532D01*
X121141471Y-48891532D01*
X121330033Y-48702971D01*
X121222284Y-48595221D01*
X121330033Y-49187844D02*
X121895719Y-48622158D01*
X122111218Y-48837658D01*
X122138155Y-48918470D01*
X122138155Y-48972345D01*
X122111218Y-49053157D01*
X122030406Y-49133969D01*
X121949593Y-49160906D01*
X121895719Y-49160906D01*
X121814906Y-49133969D01*
X121599407Y-48918470D01*
X122192030Y-50049841D02*
X121868781Y-49726592D01*
X122030406Y-49888216D02*
X122596091Y-49322531D01*
X122461404Y-49349468D01*
X122353654Y-49349468D01*
X122272842Y-49322531D01*
X122946277Y-49672717D02*
X123323401Y-50049841D01*
X122515279Y-50373089D01*
X124139407Y-48379722D02*
X124112470Y-48298910D01*
X124031658Y-48218097D01*
X123923908Y-48164223D01*
X123816158Y-48164223D01*
X123735346Y-48191160D01*
X123600659Y-48271972D01*
X123519847Y-48352784D01*
X123439035Y-48487471D01*
X123412097Y-48568284D01*
X123412097Y-48676033D01*
X123465972Y-48783783D01*
X123519847Y-48837658D01*
X123627597Y-48891532D01*
X123681471Y-48891532D01*
X123870033Y-48702971D01*
X123762284Y-48595221D01*
X123870033Y-49187844D02*
X124435719Y-48622158D01*
X124651218Y-48837658D01*
X124678155Y-48918470D01*
X124678155Y-48972345D01*
X124651218Y-49053157D01*
X124570406Y-49133969D01*
X124489593Y-49160906D01*
X124435719Y-49160906D01*
X124354906Y-49133969D01*
X124139407Y-48918470D01*
X124732030Y-50049841D02*
X124408781Y-49726592D01*
X124570406Y-49888216D02*
X125136091Y-49322531D01*
X125001404Y-49349468D01*
X124893654Y-49349468D01*
X124812842Y-49322531D01*
X125782589Y-49969028D02*
X125674839Y-49861279D01*
X125594027Y-49834341D01*
X125540152Y-49834341D01*
X125405465Y-49861279D01*
X125270778Y-49942091D01*
X125055279Y-50157590D01*
X125028341Y-50238402D01*
X125028341Y-50292277D01*
X125055279Y-50373089D01*
X125163028Y-50480839D01*
X125243841Y-50507776D01*
X125297715Y-50507776D01*
X125378528Y-50480839D01*
X125513215Y-50346152D01*
X125540152Y-50265340D01*
X125540152Y-50211465D01*
X125513215Y-50130653D01*
X125405465Y-50022903D01*
X125324653Y-49995966D01*
X125270778Y-49995966D01*
X125189966Y-50022903D01*
X124139407Y-74487722D02*
X124112470Y-74406910D01*
X124031658Y-74326097D01*
X123923908Y-74272223D01*
X123816158Y-74272223D01*
X123735346Y-74299160D01*
X123600659Y-74379972D01*
X123519847Y-74460784D01*
X123439035Y-74595471D01*
X123412097Y-74676284D01*
X123412097Y-74784033D01*
X123465972Y-74891783D01*
X123519847Y-74945658D01*
X123627597Y-74999532D01*
X123681471Y-74999532D01*
X123870033Y-74810971D01*
X123762284Y-74703221D01*
X123870033Y-75295844D02*
X124435719Y-74730158D01*
X124651218Y-74945658D01*
X124678155Y-75026470D01*
X124678155Y-75080345D01*
X124651218Y-75161157D01*
X124570406Y-75241969D01*
X124489593Y-75268906D01*
X124435719Y-75268906D01*
X124354906Y-75241969D01*
X124139407Y-75026470D01*
X124732030Y-76157841D02*
X124408781Y-75834592D01*
X124570406Y-75996216D02*
X125136091Y-75430531D01*
X125001404Y-75457468D01*
X124893654Y-75457468D01*
X124812842Y-75430531D01*
X125809526Y-76103966D02*
X125540152Y-75834592D01*
X125243841Y-76077028D01*
X125297715Y-76077028D01*
X125378528Y-76103966D01*
X125513215Y-76238653D01*
X125540152Y-76319465D01*
X125540152Y-76373340D01*
X125513215Y-76454152D01*
X125378528Y-76588839D01*
X125297715Y-76615776D01*
X125243841Y-76615776D01*
X125163028Y-76588839D01*
X125028341Y-76454152D01*
X125001404Y-76373340D01*
X125001404Y-76319465D01*
X121599407Y-74533722D02*
X121572470Y-74452910D01*
X121491658Y-74372097D01*
X121383908Y-74318223D01*
X121276158Y-74318223D01*
X121195346Y-74345160D01*
X121060659Y-74425972D01*
X120979847Y-74506784D01*
X120899035Y-74641471D01*
X120872097Y-74722284D01*
X120872097Y-74830033D01*
X120925972Y-74937783D01*
X120979847Y-74991658D01*
X121087597Y-75045532D01*
X121141471Y-75045532D01*
X121330033Y-74856971D01*
X121222284Y-74749221D01*
X121330033Y-75341844D02*
X121895719Y-74776158D01*
X122111218Y-74991658D01*
X122138155Y-75072470D01*
X122138155Y-75126345D01*
X122111218Y-75207157D01*
X122030406Y-75287969D01*
X121949593Y-75314906D01*
X121895719Y-75314906D01*
X121814906Y-75287969D01*
X121599407Y-75072470D01*
X122192030Y-76203841D02*
X121868781Y-75880592D01*
X122030406Y-76042216D02*
X122596091Y-75476531D01*
X122461404Y-75503468D01*
X122353654Y-75503468D01*
X122272842Y-75476531D01*
X123054027Y-76311590D02*
X122676903Y-76688714D01*
X123134839Y-75961404D02*
X122596091Y-76230778D01*
X122946277Y-76580964D01*
X116519407Y-74487722D02*
X116492470Y-74406910D01*
X116411658Y-74326097D01*
X116303908Y-74272223D01*
X116196158Y-74272223D01*
X116115346Y-74299160D01*
X115980659Y-74379972D01*
X115899847Y-74460784D01*
X115819035Y-74595471D01*
X115792097Y-74676284D01*
X115792097Y-74784033D01*
X115845972Y-74891783D01*
X115899847Y-74945658D01*
X116007597Y-74999532D01*
X116061471Y-74999532D01*
X116250033Y-74810971D01*
X116142284Y-74703221D01*
X116250033Y-75295844D02*
X116815719Y-74730158D01*
X117031218Y-74945658D01*
X117058155Y-75026470D01*
X117058155Y-75080345D01*
X117031218Y-75161157D01*
X116950406Y-75241969D01*
X116869593Y-75268906D01*
X116815719Y-75268906D01*
X116734906Y-75241969D01*
X116519407Y-75026470D01*
X117112030Y-76157841D02*
X116788781Y-75834592D01*
X116950406Y-75996216D02*
X117516091Y-75430531D01*
X117381404Y-75457468D01*
X117273654Y-75457468D01*
X117192842Y-75430531D01*
X117866277Y-75780717D02*
X118216463Y-76130903D01*
X117812402Y-76157841D01*
X117893215Y-76238653D01*
X117920152Y-76319465D01*
X117920152Y-76373340D01*
X117893215Y-76454152D01*
X117758528Y-76588839D01*
X117677715Y-76615776D01*
X117623841Y-76615776D01*
X117543028Y-76588839D01*
X117381404Y-76427215D01*
X117354467Y-76346402D01*
X117354467Y-76292528D01*
X113979407Y-74633722D02*
X113952470Y-74552910D01*
X113871658Y-74472097D01*
X113763908Y-74418223D01*
X113656158Y-74418223D01*
X113575346Y-74445160D01*
X113440659Y-74525972D01*
X113359847Y-74606784D01*
X113279035Y-74741471D01*
X113252097Y-74822284D01*
X113252097Y-74930033D01*
X113305972Y-75037783D01*
X113359847Y-75091658D01*
X113467597Y-75145532D01*
X113521471Y-75145532D01*
X113710033Y-74956971D01*
X113602284Y-74849221D01*
X113710033Y-75441844D02*
X114275719Y-74876158D01*
X114491218Y-75091658D01*
X114518155Y-75172470D01*
X114518155Y-75226345D01*
X114491218Y-75307157D01*
X114410406Y-75387969D01*
X114329593Y-75414906D01*
X114275719Y-75414906D01*
X114194906Y-75387969D01*
X113979407Y-75172470D01*
X114572030Y-76303841D02*
X114248781Y-75980592D01*
X114410406Y-76142216D02*
X114976091Y-75576531D01*
X114841404Y-75603468D01*
X114733654Y-75603468D01*
X114652842Y-75576531D01*
X115299340Y-76007529D02*
X115353215Y-76007529D01*
X115434027Y-76034467D01*
X115568714Y-76169154D01*
X115595651Y-76249966D01*
X115595651Y-76303841D01*
X115568714Y-76384653D01*
X115514839Y-76438528D01*
X115407089Y-76492402D01*
X114760592Y-76492402D01*
X115110778Y-76842589D01*
X111439407Y-74633722D02*
X111412470Y-74552910D01*
X111331658Y-74472097D01*
X111223908Y-74418223D01*
X111116158Y-74418223D01*
X111035346Y-74445160D01*
X110900659Y-74525972D01*
X110819847Y-74606784D01*
X110739035Y-74741471D01*
X110712097Y-74822284D01*
X110712097Y-74930033D01*
X110765972Y-75037783D01*
X110819847Y-75091658D01*
X110927597Y-75145532D01*
X110981471Y-75145532D01*
X111170033Y-74956971D01*
X111062284Y-74849221D01*
X111170033Y-75441844D02*
X111735719Y-74876158D01*
X111951218Y-75091658D01*
X111978155Y-75172470D01*
X111978155Y-75226345D01*
X111951218Y-75307157D01*
X111870406Y-75387969D01*
X111789593Y-75414906D01*
X111735719Y-75414906D01*
X111654906Y-75387969D01*
X111439407Y-75172470D01*
X112032030Y-76303841D02*
X111708781Y-75980592D01*
X111870406Y-76142216D02*
X112436091Y-75576531D01*
X112301404Y-75603468D01*
X112193654Y-75603468D01*
X112112842Y-75576531D01*
X112570778Y-76842589D02*
X112247529Y-76519340D01*
X112409154Y-76680964D02*
X112974839Y-76115279D01*
X112840152Y-76142216D01*
X112732402Y-76142216D01*
X112651590Y-76115279D01*
X108899407Y-74487722D02*
X108872470Y-74406910D01*
X108791658Y-74326097D01*
X108683908Y-74272223D01*
X108576158Y-74272223D01*
X108495346Y-74299160D01*
X108360659Y-74379972D01*
X108279847Y-74460784D01*
X108199035Y-74595471D01*
X108172097Y-74676284D01*
X108172097Y-74784033D01*
X108225972Y-74891783D01*
X108279847Y-74945658D01*
X108387597Y-74999532D01*
X108441471Y-74999532D01*
X108630033Y-74810971D01*
X108522284Y-74703221D01*
X108630033Y-75295844D02*
X109195719Y-74730158D01*
X109411218Y-74945658D01*
X109438155Y-75026470D01*
X109438155Y-75080345D01*
X109411218Y-75161157D01*
X109330406Y-75241969D01*
X109249593Y-75268906D01*
X109195719Y-75268906D01*
X109114906Y-75241969D01*
X108899407Y-75026470D01*
X109492030Y-76157841D02*
X109168781Y-75834592D01*
X109330406Y-75996216D02*
X109896091Y-75430531D01*
X109761404Y-75457468D01*
X109653654Y-75457468D01*
X109572842Y-75430531D01*
X110407902Y-75942341D02*
X110461776Y-75996216D01*
X110488714Y-76077028D01*
X110488714Y-76130903D01*
X110461776Y-76211715D01*
X110380964Y-76346402D01*
X110246277Y-76481089D01*
X110111590Y-76561902D01*
X110030778Y-76588839D01*
X109976903Y-76588839D01*
X109896091Y-76561902D01*
X109842216Y-76508027D01*
X109815279Y-76427215D01*
X109815279Y-76373340D01*
X109842216Y-76292528D01*
X109923028Y-76157841D01*
X110057715Y-76023154D01*
X110192402Y-75942341D01*
X110273215Y-75915404D01*
X110327089Y-75915404D01*
X110407902Y-75942341D01*
X104088781Y-74503096D02*
X104061844Y-74422284D01*
X103981032Y-74341471D01*
X103873282Y-74287597D01*
X103765532Y-74287597D01*
X103684720Y-74314534D01*
X103550033Y-74395346D01*
X103469221Y-74476158D01*
X103388409Y-74610845D01*
X103361471Y-74691658D01*
X103361471Y-74799407D01*
X103415346Y-74907157D01*
X103469221Y-74961032D01*
X103576971Y-75014906D01*
X103630845Y-75014906D01*
X103819407Y-74826345D01*
X103711658Y-74718595D01*
X103819407Y-75311218D02*
X104385093Y-74745532D01*
X104600592Y-74961032D01*
X104627529Y-75041844D01*
X104627529Y-75095719D01*
X104600592Y-75176531D01*
X104519780Y-75257343D01*
X104438967Y-75284280D01*
X104385093Y-75284280D01*
X104304280Y-75257343D01*
X104088781Y-75041844D01*
X104412030Y-75903841D02*
X104519780Y-76011590D01*
X104600592Y-76038528D01*
X104654467Y-76038528D01*
X104789154Y-76011590D01*
X104923841Y-75930778D01*
X105139340Y-75715279D01*
X105166277Y-75634467D01*
X105166277Y-75580592D01*
X105139340Y-75499780D01*
X105031590Y-75392030D01*
X104950778Y-75365093D01*
X104896903Y-75365093D01*
X104816091Y-75392030D01*
X104681404Y-75526717D01*
X104654467Y-75607529D01*
X104654467Y-75661404D01*
X104681404Y-75742216D01*
X104789154Y-75849966D01*
X104869966Y-75876903D01*
X104923841Y-75876903D01*
X105004653Y-75849966D01*
X101548781Y-74503096D02*
X101521844Y-74422284D01*
X101441032Y-74341471D01*
X101333282Y-74287597D01*
X101225532Y-74287597D01*
X101144720Y-74314534D01*
X101010033Y-74395346D01*
X100929221Y-74476158D01*
X100848409Y-74610845D01*
X100821471Y-74691658D01*
X100821471Y-74799407D01*
X100875346Y-74907157D01*
X100929221Y-74961032D01*
X101036971Y-75014906D01*
X101090845Y-75014906D01*
X101279407Y-74826345D01*
X101171658Y-74718595D01*
X101279407Y-75311218D02*
X101845093Y-74745532D01*
X102060592Y-74961032D01*
X102087529Y-75041844D01*
X102087529Y-75095719D01*
X102060592Y-75176531D01*
X101979780Y-75257343D01*
X101898967Y-75284280D01*
X101845093Y-75284280D01*
X101764280Y-75257343D01*
X101548781Y-75041844D01*
X102249154Y-75634467D02*
X102222216Y-75553654D01*
X102222216Y-75499780D01*
X102249154Y-75418967D01*
X102276091Y-75392030D01*
X102356903Y-75365093D01*
X102410778Y-75365093D01*
X102491590Y-75392030D01*
X102599340Y-75499780D01*
X102626277Y-75580592D01*
X102626277Y-75634467D01*
X102599340Y-75715279D01*
X102572402Y-75742216D01*
X102491590Y-75769154D01*
X102437715Y-75769154D01*
X102356903Y-75742216D01*
X102249154Y-75634467D01*
X102168341Y-75607529D01*
X102114467Y-75607529D01*
X102033654Y-75634467D01*
X101925905Y-75742216D01*
X101898967Y-75823028D01*
X101898967Y-75876903D01*
X101925905Y-75957715D01*
X102033654Y-76065465D01*
X102114467Y-76092402D01*
X102168341Y-76092402D01*
X102249154Y-76065465D01*
X102356903Y-75957715D01*
X102383841Y-75876903D01*
X102383841Y-75823028D01*
X102356903Y-75742216D01*
X98978781Y-74403096D02*
X98951844Y-74322284D01*
X98871032Y-74241471D01*
X98763282Y-74187597D01*
X98655532Y-74187597D01*
X98574720Y-74214534D01*
X98440033Y-74295346D01*
X98359221Y-74376158D01*
X98278409Y-74510845D01*
X98251471Y-74591658D01*
X98251471Y-74699407D01*
X98305346Y-74807157D01*
X98359221Y-74861032D01*
X98466971Y-74914906D01*
X98520845Y-74914906D01*
X98709407Y-74726345D01*
X98601658Y-74618595D01*
X98709407Y-75211218D02*
X99275093Y-74645532D01*
X99490592Y-74861032D01*
X99517529Y-74941844D01*
X99517529Y-74995719D01*
X99490592Y-75076531D01*
X99409780Y-75157343D01*
X99328967Y-75184280D01*
X99275093Y-75184280D01*
X99194280Y-75157343D01*
X98978781Y-74941844D01*
X99786903Y-75157343D02*
X100164027Y-75534467D01*
X99355905Y-75857715D01*
X96468781Y-74503096D02*
X96441844Y-74422284D01*
X96361032Y-74341471D01*
X96253282Y-74287597D01*
X96145532Y-74287597D01*
X96064720Y-74314534D01*
X95930033Y-74395346D01*
X95849221Y-74476158D01*
X95768409Y-74610845D01*
X95741471Y-74691658D01*
X95741471Y-74799407D01*
X95795346Y-74907157D01*
X95849221Y-74961032D01*
X95956971Y-75014906D01*
X96010845Y-75014906D01*
X96199407Y-74826345D01*
X96091658Y-74718595D01*
X96199407Y-75311218D02*
X96765093Y-74745532D01*
X96980592Y-74961032D01*
X97007529Y-75041844D01*
X97007529Y-75095719D01*
X96980592Y-75176531D01*
X96899780Y-75257343D01*
X96818967Y-75284280D01*
X96765093Y-75284280D01*
X96684280Y-75257343D01*
X96468781Y-75041844D01*
X97573215Y-75553654D02*
X97465465Y-75445905D01*
X97384653Y-75418967D01*
X97330778Y-75418967D01*
X97196091Y-75445905D01*
X97061404Y-75526717D01*
X96845905Y-75742216D01*
X96818967Y-75823028D01*
X96818967Y-75876903D01*
X96845905Y-75957715D01*
X96953654Y-76065465D01*
X97034467Y-76092402D01*
X97088341Y-76092402D01*
X97169154Y-76065465D01*
X97303841Y-75930778D01*
X97330778Y-75849966D01*
X97330778Y-75796091D01*
X97303841Y-75715279D01*
X97196091Y-75607529D01*
X97115279Y-75580592D01*
X97061404Y-75580592D01*
X96980592Y-75607529D01*
X91388781Y-74503096D02*
X91361844Y-74422284D01*
X91281032Y-74341471D01*
X91173282Y-74287597D01*
X91065532Y-74287597D01*
X90984720Y-74314534D01*
X90850033Y-74395346D01*
X90769221Y-74476158D01*
X90688409Y-74610845D01*
X90661471Y-74691658D01*
X90661471Y-74799407D01*
X90715346Y-74907157D01*
X90769221Y-74961032D01*
X90876971Y-75014906D01*
X90930845Y-75014906D01*
X91119407Y-74826345D01*
X91011658Y-74718595D01*
X91119407Y-75311218D02*
X91685093Y-74745532D01*
X91900592Y-74961032D01*
X91927529Y-75041844D01*
X91927529Y-75095719D01*
X91900592Y-75176531D01*
X91819780Y-75257343D01*
X91738967Y-75284280D01*
X91685093Y-75284280D01*
X91604280Y-75257343D01*
X91388781Y-75041844D01*
X92520152Y-75580592D02*
X92250778Y-75311218D01*
X91954467Y-75553654D01*
X92008341Y-75553654D01*
X92089154Y-75580592D01*
X92223841Y-75715279D01*
X92250778Y-75796091D01*
X92250778Y-75849966D01*
X92223841Y-75930778D01*
X92089154Y-76065465D01*
X92008341Y-76092402D01*
X91954467Y-76092402D01*
X91873654Y-76065465D01*
X91738967Y-75930778D01*
X91712030Y-75849966D01*
X91712030Y-75796091D01*
X88848781Y-74503096D02*
X88821844Y-74422284D01*
X88741032Y-74341471D01*
X88633282Y-74287597D01*
X88525532Y-74287597D01*
X88444720Y-74314534D01*
X88310033Y-74395346D01*
X88229221Y-74476158D01*
X88148409Y-74610845D01*
X88121471Y-74691658D01*
X88121471Y-74799407D01*
X88175346Y-74907157D01*
X88229221Y-74961032D01*
X88336971Y-75014906D01*
X88390845Y-75014906D01*
X88579407Y-74826345D01*
X88471658Y-74718595D01*
X88579407Y-75311218D02*
X89145093Y-74745532D01*
X89360592Y-74961032D01*
X89387529Y-75041844D01*
X89387529Y-75095719D01*
X89360592Y-75176531D01*
X89279780Y-75257343D01*
X89198967Y-75284280D01*
X89145093Y-75284280D01*
X89064280Y-75257343D01*
X88848781Y-75041844D01*
X89764653Y-75742216D02*
X89387529Y-76119340D01*
X89845465Y-75392030D02*
X89306717Y-75661404D01*
X89656903Y-76011590D01*
X86308781Y-74503096D02*
X86281844Y-74422284D01*
X86201032Y-74341471D01*
X86093282Y-74287597D01*
X85985532Y-74287597D01*
X85904720Y-74314534D01*
X85770033Y-74395346D01*
X85689221Y-74476158D01*
X85608409Y-74610845D01*
X85581471Y-74691658D01*
X85581471Y-74799407D01*
X85635346Y-74907157D01*
X85689221Y-74961032D01*
X85796971Y-75014906D01*
X85850845Y-75014906D01*
X86039407Y-74826345D01*
X85931658Y-74718595D01*
X86039407Y-75311218D02*
X86605093Y-74745532D01*
X86820592Y-74961032D01*
X86847529Y-75041844D01*
X86847529Y-75095719D01*
X86820592Y-75176531D01*
X86739780Y-75257343D01*
X86658967Y-75284280D01*
X86605093Y-75284280D01*
X86524280Y-75257343D01*
X86308781Y-75041844D01*
X87116903Y-75257343D02*
X87467089Y-75607529D01*
X87063028Y-75634467D01*
X87143841Y-75715279D01*
X87170778Y-75796091D01*
X87170778Y-75849966D01*
X87143841Y-75930778D01*
X87009154Y-76065465D01*
X86928341Y-76092402D01*
X86874467Y-76092402D01*
X86793654Y-76065465D01*
X86632030Y-75903841D01*
X86605093Y-75823028D01*
X86605093Y-75769154D01*
X76148781Y-74503096D02*
X76121844Y-74422284D01*
X76041032Y-74341471D01*
X75933282Y-74287597D01*
X75825532Y-74287597D01*
X75744720Y-74314534D01*
X75610033Y-74395346D01*
X75529221Y-74476158D01*
X75448409Y-74610845D01*
X75421471Y-74691658D01*
X75421471Y-74799407D01*
X75475346Y-74907157D01*
X75529221Y-74961032D01*
X75636971Y-75014906D01*
X75690845Y-75014906D01*
X75879407Y-74826345D01*
X75771658Y-74718595D01*
X75879407Y-75311218D02*
X76445093Y-74745532D01*
X76660592Y-74961032D01*
X76687529Y-75041844D01*
X76687529Y-75095719D01*
X76660592Y-75176531D01*
X76579780Y-75257343D01*
X76498967Y-75284280D01*
X76445093Y-75284280D01*
X76364280Y-75257343D01*
X76148781Y-75041844D01*
X77118528Y-75418967D02*
X77172402Y-75472842D01*
X77199340Y-75553654D01*
X77199340Y-75607529D01*
X77172402Y-75688341D01*
X77091590Y-75823028D01*
X76956903Y-75957715D01*
X76822216Y-76038528D01*
X76741404Y-76065465D01*
X76687529Y-76065465D01*
X76606717Y-76038528D01*
X76552842Y-75984653D01*
X76525905Y-75903841D01*
X76525905Y-75849966D01*
X76552842Y-75769154D01*
X76633654Y-75634467D01*
X76768341Y-75499780D01*
X76903028Y-75418967D01*
X76983841Y-75392030D01*
X77037715Y-75392030D01*
X77118528Y-75418967D01*
X83768781Y-74603096D02*
X83741844Y-74522284D01*
X83661032Y-74441471D01*
X83553282Y-74387597D01*
X83445532Y-74387597D01*
X83364720Y-74414534D01*
X83230033Y-74495346D01*
X83149221Y-74576158D01*
X83068409Y-74710845D01*
X83041471Y-74791658D01*
X83041471Y-74899407D01*
X83095346Y-75007157D01*
X83149221Y-75061032D01*
X83256971Y-75114906D01*
X83310845Y-75114906D01*
X83499407Y-74926345D01*
X83391658Y-74818595D01*
X83499407Y-75411218D02*
X84065093Y-74845532D01*
X84280592Y-75061032D01*
X84307529Y-75141844D01*
X84307529Y-75195719D01*
X84280592Y-75276531D01*
X84199780Y-75357343D01*
X84118967Y-75384280D01*
X84065093Y-75384280D01*
X83984280Y-75357343D01*
X83768781Y-75141844D01*
X84549966Y-75438155D02*
X84603841Y-75438155D01*
X84684653Y-75465093D01*
X84819340Y-75599780D01*
X84846277Y-75680592D01*
X84846277Y-75734467D01*
X84819340Y-75815279D01*
X84765465Y-75869154D01*
X84657715Y-75923028D01*
X84011218Y-75923028D01*
X84361404Y-76273215D01*
X78678781Y-74603096D02*
X78651844Y-74522284D01*
X78571032Y-74441471D01*
X78463282Y-74387597D01*
X78355532Y-74387597D01*
X78274720Y-74414534D01*
X78140033Y-74495346D01*
X78059221Y-74576158D01*
X77978409Y-74710845D01*
X77951471Y-74791658D01*
X77951471Y-74899407D01*
X78005346Y-75007157D01*
X78059221Y-75061032D01*
X78166971Y-75114906D01*
X78220845Y-75114906D01*
X78409407Y-74926345D01*
X78301658Y-74818595D01*
X78409407Y-75411218D02*
X78975093Y-74845532D01*
X79190592Y-75061032D01*
X79217529Y-75141844D01*
X79217529Y-75195719D01*
X79190592Y-75276531D01*
X79109780Y-75357343D01*
X79028967Y-75384280D01*
X78975093Y-75384280D01*
X78894280Y-75357343D01*
X78678781Y-75141844D01*
X79271404Y-76273215D02*
X78948155Y-75949966D01*
X79109780Y-76111590D02*
X79675465Y-75545905D01*
X79540778Y-75572842D01*
X79433028Y-75572842D01*
X79352216Y-75545905D01*
%TD*%
M02*
